<svg width="1440" height="900" viewBox="0 0 1440 900" fill="none" xmlns="http://www.w3.org/2000/svg">
<mask id="mask0" mask-type="alpha" maskUnits="userSpaceOnUse" x="0" y="0" width="1440" height="900">
<rect width="1440" height="900" fill="#191D25"/>
</mask>
<g mask="url(#mask0)">
<path d="M-1814.39 870.393C-1735.21 779.896 -1661.38 704.262 -1588.67 639.177C-1507.52 566.401 -1421.53 499.214 -1331.28 438.08C-1240.44 376.671 -1145.2 322.045 -1046.32 274.648C-868.862 189.774 -686.02 124.36 -482.628 53.6679C-460.43 45.9578 -437.315 38.2399 -414.961 30.7809C-285.361 -12.4598 -151.353 -57.1749 -51.2143 -145.288C-23.9265 -169.296 -5.97251 -192.489 3.6908 -216.184C14.8993 -243.714 15.0641 -271.872 4.18504 -302.21C-13.0081 -350.204 -43.9512 -398.417 -90.4166 -449.596C-131.07 -494.381 -176.696 -534.304 -220.863 -572.878C-224.89 -576.392 -228.882 -579.885 -232.841 -583.357L-232.582 -583.655L-220.605 -573.168C-176.461 -534.587 -130.78 -494.656 -90.1341 -449.878C-43.6373 -398.653 -12.663 -350.4 4.54582 -302.359C15.4563 -271.904 15.2914 -243.675 4.04372 -216.082C-5.62743 -192.324 -23.6205 -169.085 -50.9554 -145.037C-151.173 -56.822 -285.204 -12.0911 -414.835 31.1652C-437.19 38.6243 -460.328 46.3343 -482.494 54.0444C-685.879 124.721 -868.681 190.143 -1046.13 275.001C-1144.98 322.392 -1240.21 377.01 -1331.03 438.41C-1421.26 499.533 -1507.24 566.706 -1588.38 639.467C-1661.07 704.568 -1734.9 780.162 -1814.06 870.644C-1884.71 951.384 -1953.18 1036.45 -2019.4 1118.72L-2023.72 1124.1L-2024.03 1123.85L-2019.71 1118.48C-1953.51 1036.21 -1885.04 951.133 -1814.39 870.393Z" fill="url(#paint0_linear)"/>
<path d="M-1519.88 627.396C-1439.58 555.798 -1354.3 489.989 -1264.69 430.464C-1174.48 370.651 -1079.91 317.69 -981.778 272.028C-795.1 185.303 -600.862 119.709 -413.031 56.2797C-392.379 49.299 -370.927 42.3027 -350.181 35.526C-219.907 -6.96162 -85.2006 -50.9395 17.2759 -136.927C36.2652 -152.857 50.6582 -170.441 60.0627 -189.179C68.8388 -206.707 73.5645 -225.982 73.8909 -245.581C74.4634 -273.37 66.7924 -303.936 51.1052 -336.447C37.6534 -364.314 17.8955 -394.433 -7.62752 -425.987C-54.3283 -483.714 -111.343 -535.669 -152.969 -573.6C-156.666 -576.962 -160.225 -580.209 -163.644 -583.341L-163.378 -583.631C-159.966 -580.494 -156.397 -577.255 -152.71 -573.89C-111.069 -535.951 -54.046 -483.981 -7.32171 -426.23C18.217 -394.661 37.9987 -364.511 51.4583 -336.619C67.1455 -304.054 74.8556 -273.417 74.283 -245.573C73.9568 -225.916 69.2148 -206.584 60.4078 -189.007C50.9955 -170.183 36.5633 -152.59 17.5269 -136.621C-85.0045 -50.5944 -219.75 -6.60081 -350.055 35.9339C-370.802 42.7027 -392.254 49.7069 -412.898 56.6797C-600.721 120.109 -794.936 185.703 -981.606 272.412C-1079.72 318.059 -1174.27 370.996 -1264.47 430.778C-1354.06 490.283 -1439.32 556.071 -1519.61 627.647C-1595.9 695.595 -1671.21 773.385 -1749.84 865.475C-1824.42 952.819 -1895.16 1045.18 -1954.56 1124.02L-1954.87 1123.78C-1895.5 1044.94 -1824.75 952.568 -1750.15 865.224C-1671.5 773.166 -1596.17 695.359 -1519.88 627.396Z" fill="url(#paint1_linear)"/>
<path d="M-1452.61 616.29C-1373.24 545.909 -1288.76 481.518 -1199.86 423.649C-1110.37 365.522 -1016.59 314.27 -919.335 270.334C-737.615 188.253 -544.412 124.831 -357.554 63.4879L-345.537 59.5662C-330.571 54.6562 -315.284 49.707 -300.499 44.9147C-229.687 21.9728 -156.452 -1.74564 -87.4594 -31.2446C-28.8129 -56.3435 37.6615 -86.5641 84.2368 -128.283C101.869 -144.08 115.227 -161.578 123.925 -180.285C132.11 -197.998 136.446 -217.246 136.648 -236.757C137.11 -265.66 129.306 -297.598 113.439 -331.662C99.9006 -360.777 80.0955 -392.268 54.6117 -425.257C8.05213 -485.479 -49.4729 -540.383 -87.5144 -576.713L-94.4401 -583.333L-94.1657 -583.616L-87.2398 -576.996C-49.2062 -540.657 8.31083 -485.746 54.8626 -425.563C80.3934 -392.543 100.214 -361.028 113.768 -331.89C129.628 -297.716 137.471 -265.715 137.008 -236.749C136.801 -217.191 132.452 -197.899 124.247 -180.144C115.525 -161.39 102.144 -143.852 84.4643 -128.016C37.8498 -86.2582 -28.656 -55.9984 -87.3104 -30.9074C-156.334 -1.40054 -229.562 22.3257 -300.39 45.2676C-315.175 50.0521 -330.454 55.0013 -345.427 59.9191L-357.436 63.8408C-544.278 125.176 -737.474 188.598 -919.186 270.663C-1016.42 314.596 -1110.18 365.84 -1199.66 423.955C-1288.53 481.815 -1372.98 546.193 -1452.32 616.557C-1631.06 774.993 -1771.48 961.996 -1885.29 1124.02L-1885.61 1123.8C-1771.82 961.776 -1631.37 774.774 -1452.61 616.29Z" fill="url(#paint2_linear)"/>
<path d="M-1395.51 613.6C-1316.2 542.678 -1231.38 478.159 -1141.86 420.652C-1051.71 362.893 -957.157 312.307 -859.08 269.361C-681.313 191.437 -492.832 131.255 -310.555 73.0411L-280.098 63.3152C-270.973 60.3975 -261.844 57.4876 -252.708 54.5855C-179.222 31.1887 -103.241 6.99967 -31.0562 -22.5621C1.18099 -35.7625 32.6026 -48.9473 62.6121 -65.0654C96.9357 -83.4896 123.792 -102.918 144.758 -124.448C161.896 -142.056 174.697 -161.265 182.807 -181.54C190.441 -200.795 194.173 -221.374 193.788 -242.083C193.279 -279.653 180.282 -321.505 155.151 -366.471C109.313 -448.49 31.3946 -526.571 -20.1613 -578.243L-25.2282 -583.318L-24.9538 -583.6L-19.8946 -578.51C31.6849 -526.837 109.627 -448.725 155.512 -366.66C180.674 -321.638 193.694 -279.723 194.204 -242.091C194.6 -221.33 190.868 -200.697 183.223 -181.391C175.097 -161.069 162.265 -141.821 145.095 -124.181C124.114 -102.612 97.2103 -83.168 62.8553 -64.7203C32.8301 -48.5943 1.39277 -35.4017 -30.8522 -22.2013C-103.013 7.36833 -179.041 31.5652 -252.536 54.9542L-279.925 63.6917L-310.382 73.4175C-492.652 131.623 -681.125 191.806 -858.869 269.722C-956.927 312.673 -1051.46 363.261 -1141.59 421.021C-1231.09 478.507 -1315.89 542.999 -1395.2 613.89C-1474.21 684.543 -1548.74 763.628 -1623.05 855.655C-1685.61 933.14 -1748.74 1020.92 -1816 1123.99L-1816.33 1123.77C-1749.12 1020.69 -1685.98 932.912 -1623.42 855.412C-1549.08 763.362 -1474.54 684.277 -1395.51 613.6Z" fill="url(#paint3_linear)"/>
<path d="M-1331.19 603.796C-1251.61 533.046 -1166.22 469.104 -1075.93 412.644C-986.665 356.799 -890.761 307.119 -790.873 264.985C-619.098 192.527 -437.66 136.22 -262.215 81.7707L-226.275 70.6174L-211.373 65.982C-130.984 41.0321 -47.8651 15.2274 31.1826 -16.6796C92.0097 -41.2294 154.547 -70.297 199.82 -116.291C217.452 -134.205 230.771 -153.79 239.406 -174.504C247.532 -194.158 251.77 -215.2 251.886 -236.467C252.278 -274.955 240.214 -317.913 216.032 -364.15C196.525 -401.453 169.426 -440.85 133.189 -484.585C102.293 -521.88 70.1574 -555.74 44.3363 -582.949L43.9677 -583.341L44.25 -583.608L44.6264 -583.216C70.4475 -556.007 102.583 -522.139 133.487 -484.836C169.74 -441.078 196.855 -401.657 216.378 -364.33C240.591 -318.054 252.67 -275.017 252.278 -236.483C252.16 -215.178 247.911 -194.098 239.767 -174.41C231.139 -153.649 217.766 -134.025 200.102 -116.071C154.79 -70.0146 92.2136 -40.9313 31.3394 -16.358C-47.724 15.5489 -130.85 41.3537 -211.239 66.3114L-226.142 70.939L-262.081 82.1001C-437.558 136.549 -619.004 192.849 -790.739 265.298C-890.612 307.425 -986.5 357.066 -1075.74 412.927C-1166 469.377 -1251.37 533.305 -1330.93 604.039C-1411.61 675.853 -1486.27 755.981 -1559.18 848.996C-1622.65 929.971 -1684.04 1019.9 -1746.85 1123.91L-1747.19 1123.7C-1684.37 1019.68 -1622.97 929.743 -1559.48 848.753C-1486.57 755.769 -1411.89 675.649 -1331.19 603.796Z" fill="url(#paint4_linear)"/>
<path d="M-1394.92 720.011C-1357.62 678.822 -1318.26 639.555 -1276.98 602.36C-1197.58 531.127 -1111.96 467.136 -1021.16 411.154C-932.018 356.109 -835.519 307.135 -734.328 265.604C-565.895 196.418 -388.277 142.847 -216.51 91.0024C-199.196 85.7734 -181.889 80.5445 -164.586 75.3156C-143.573 68.9546 -121.956 62.7662 -99.0758 56.2797C27.5904 20.2001 171.152 -20.7189 257.933 -112.165C275.048 -130.197 288.068 -149.868 296.696 -170.653C304.79 -190.387 309.188 -211.441 309.67 -232.765C310.697 -271.425 299.841 -314.548 277.401 -360.926C259.165 -398.574 233.595 -438.364 199.208 -482.499C168.414 -521.974 135.165 -558.901 113.156 -583.302L113.447 -583.561C135.456 -559.136 168.712 -522.233 199.475 -482.726C233.877 -438.56 259.471 -398.802 277.715 -361.067C300.179 -314.634 311.05 -271.456 310.023 -232.734C309.542 -211.361 305.134 -190.259 297.018 -170.481C288.39 -149.672 275.354 -129.962 258.216 -111.898C171.356 -20.3817 27.7395 20.5452 -98.9738 56.6483C-121.861 63.1662 -143.47 69.3233 -164.476 75.6842C-181.779 80.9132 -199.087 86.1421 -216.4 91.371C-388.175 143.208 -565.769 196.818 -734.187 265.949C-835.369 307.48 -931.846 356.438 -1020.96 411.468C-1111.75 467.442 -1197.34 531.422 -1276.73 602.643C-1318 639.839 -1357.35 679.106 -1394.64 720.293C-1430.57 759.934 -1465.89 802.696 -1499.62 847.403C-1561.91 929.963 -1620.14 1020.42 -1677.67 1123.94L-1678.01 1123.75C-1620.49 1020.22 -1562.24 929.743 -1499.97 847.16C-1466.18 802.43 -1430.86 759.652 -1394.92 720.011Z" fill="url(#paint5_linear)"/>
<path d="M-1215.36 593.764C-1138.78 525.056 -1053.84 462.309 -962.906 407.232C-875.458 354.289 -780.151 307.064 -679.557 266.835C-514.614 200.904 -340.988 149.906 -173.08 100.556C-150.616 93.9593 -127.391 87.1355 -104.567 80.3902C-85.9067 74.8998 -66.9173 69.5271 -46.8691 63.8642C79.3186 28.2787 222.347 -12.0677 310.799 -103.718C328.259 -121.805 341.797 -141.554 351.036 -162.394C359.747 -182.165 364.895 -203.32 366.245 -224.882C368.81 -263.935 359.813 -307.52 339.491 -354.416C322.823 -392.849 298.876 -433.485 266.278 -478.522C238.959 -516.264 209.805 -551.207 182.352 -583.349L182.65 -583.6C210.103 -551.442 239.226 -516.508 266.577 -478.757C299.19 -433.689 323.152 -393.076 339.836 -354.573C360.182 -307.615 369.194 -263.974 366.621 -224.859C365.269 -203.25 360.109 -182.051 351.381 -162.237C342.118 -141.35 328.557 -121.569 311.065 -103.412C222.558 -11.6442 79.4834 28.6709 -46.7592 64.272C-66.8309 69.935 -85.7889 75.2528 -104.449 80.7981C-127.274 87.5434 -150.499 94.3671 -172.963 100.963C-340.863 150.29 -514.481 201.288 -679.4 267.204C-779.947 307.394 -875.262 354.611 -962.695 407.546C-1053.61 462.583 -1138.53 525.322 -1215.09 594.03C-1368.76 731.941 -1497.42 905.248 -1608.42 1123.86L-1608.77 1123.68C-1497.75 905.052 -1369.06 731.705 -1215.36 593.764Z" fill="url(#paint6_linear)"/>
<path d="M-1273.32 705.313C-1236.28 663.16 -1196.77 623.242 -1155 585.772C-1080.22 518.797 -996.453 457.658 -906.04 404.064C-820.545 353.356 -726.422 307.864 -626.416 268.836C-468.76 207.304 -303.064 159.765 -142.843 113.795C-111.469 104.799 -79.0747 95.4967 -47.2376 86.2415C-29.9816 81.2217 -12.5768 76.3588 5.86353 71.2135C133.369 35.6281 277.872 -4.78109 366.779 -99.4587C383.839 -117.64 397.22 -137.429 406.546 -158.284C415.355 -178.098 420.792 -199.245 422.633 -220.851C426.084 -260.029 418.539 -303.685 400.192 -350.612C385.015 -389.46 362.778 -430.403 332.228 -475.785C305.379 -515.668 276.381 -552.517 251.564 -583.302L251.87 -583.553C276.695 -552.76 305.693 -515.904 332.557 -475.996C363.147 -430.591 385.368 -389.625 400.561 -350.753C418.923 -303.771 426.445 -260.052 423.025 -220.812C421.185 -199.156 415.734 -177.961 406.899 -158.104C397.565 -137.209 384.152 -117.381 367.061 -99.1685C278.107 -4.43598 133.549 35.9575 5.9656 71.59C-12.4668 76.7353 -29.8798 81.606 -47.1278 86.618C-78.965 95.8732 -111.382 105.175 -142.733 114.172C-302.947 160.142 -468.611 207.681 -626.275 269.204C-726.273 308.217 -820.326 353.709 -905.837 404.401C-996.226 457.987 -1079.96 519.103 -1154.75 586.062C-1196.5 623.522 -1236 663.429 -1273.03 705.572C-1309.55 747.202 -1343.77 790.79 -1375.56 836.14C-1435.8 921.971 -1490.86 1018.77 -1539.23 1123.85L-1539.59 1123.69C-1491.21 1018.59 -1436.13 921.767 -1375.88 835.913C-1344.09 790.552 -1309.85 746.954 -1273.32 705.313V705.313Z" fill="url(#paint7_linear)"/>
<path d="M-1219.67 705.242C-1183.78 663.163 -1145.28 623.382 -1104.4 586.132C-1029.49 517.942 -944.176 455.932 -850.829 401.711C-764.338 351.513 -668.018 306.358 -564.538 267.51C-413.808 210.936 -256.034 166.683 -103.453 123.898C-67.6545 113.85 -30.6328 103.505 5.7301 93.0887C21.4643 88.5944 37.2063 84.2413 53.8818 79.6294C119.07 61.5896 186.486 42.9537 249.862 16.7097C321.897 -13.0952 376.787 -48.2492 417.66 -90.682C435.198 -108.894 449.199 -128.722 459.278 -149.633C468.797 -169.457 475.078 -190.678 477.883 -212.49C483.052 -252.052 477.514 -296.179 461.411 -343.631C447.944 -383.343 427.48 -425.156 398.827 -471.479C372.206 -514.515 343.138 -553.834 320.729 -583.294L321.042 -583.537C343.42 -554.07 372.528 -514.735 399.165 -471.683C427.825 -425.36 448.313 -383.523 461.788 -343.78C477.891 -296.265 483.436 -252.083 478.259 -212.466C475.459 -190.61 469.175 -169.344 459.647 -149.476C449.552 -128.526 435.528 -108.69 417.958 -90.4154C377.046 -47.9434 322.117 -12.7658 250.027 17.0391C186.627 43.2988 119.203 61.9425 53.9996 79.9745C37.332 84.5864 21.5819 88.9395 5.84768 93.4338C-30.5074 103.866 -67.5291 114.234 -103.327 124.258C-255.893 167.044 -413.659 211.32 -564.381 267.863C-667.846 306.704 -764.158 351.842 -850.625 402.04C-943.964 456.206 -1029.24 518.24 -1104.14 586.407C-1145 623.645 -1183.48 663.414 -1219.36 705.477C-1254.68 746.971 -1287.55 790.487 -1317.81 835.803C-1375.52 922.08 -1426.72 1019 -1469.98 1123.8L-1470.34 1123.66C-1427.05 1018.83 -1375.83 921.908 -1318.12 835.584C-1287.86 790.262 -1254.99 746.741 -1219.67 705.242Z" fill="url(#paint8_linear)"/>
<path d="M-1163.47 701.611C-1128.27 659.299 -1090.25 619.416 -1049.66 582.234C-1011.24 547.156 -970.77 514.381 -928.473 484.082C-886.278 453.901 -842.532 425.951 -797.414 400.346C-712.155 351.866 -616.141 307.982 -512.025 269.918C-366.025 216.544 -213.467 174.746 -65.9288 134.322C-26.0442 123.396 15.2053 112.093 55.694 100.736C70.1105 96.6889 85.1153 92.5868 99.6181 88.6181C165.849 70.5077 234.34 51.7541 298.665 25.2905C371.689 -4.79676 427.614 -40.4842 469.616 -83.8189C487.319 -102.078 501.665 -121.946 512.254 -142.88C522.271 -162.722 529.211 -183.972 532.835 -205.901C539.455 -245.738 535.769 -290.139 521.854 -337.882C495.563 -428.442 437.551 -516.547 389.964 -583.263L390.278 -583.49C437.889 -516.821 495.924 -428.607 522.278 -337.992C536.177 -290.194 539.863 -245.738 533.259 -205.839C529.631 -183.868 522.681 -162.578 512.646 -142.699C502.034 -121.734 487.664 -101.835 469.938 -83.5523C427.896 -40.1705 371.893 -4.45163 298.853 25.6513C234.536 52.1541 166.006 70.8841 99.7592 88.9945C85.2486 92.9633 70.2359 97.0654 55.8351 101.113C15.3465 112.47 -25.895 123.772 -65.7875 134.698C-213.318 175.123 -365.868 216.92 -511.853 270.287C-615.945 308.343 -711.943 352.211 -797.179 400.691C-842.293 426.288 -886.035 454.233 -928.222 484.411C-970.501 514.7 -1010.95 547.465 -1049.36 582.532C-1089.93 619.699 -1127.94 659.57 -1163.13 701.87C-1197.71 743.53 -1229.64 787.33 -1258.7 833.011C-1314.31 920.308 -1362.11 1018.12 -1400.77 1123.8L-1401.14 1123.66C-1362.47 1017.98 -1314.66 920.12 -1259.03 832.807C-1229.97 787.108 -1198.05 743.288 -1163.47 701.611Z" fill="url(#paint9_linear)"/>
<path d="M-1106.12 695.893C-1071.32 653.16 -1033.42 613.05 -992.728 575.889C-855.935 451.1 -682.702 352.25 -463.136 273.683C-321.222 222.897 -173.002 183.225 -29.668 144.863C14.8287 132.957 60.8315 120.643 105.964 108.179C118.811 104.634 132.122 101.026 144.993 97.5438C212.825 79.1746 282.97 60.1857 348.731 33.0476C423.362 2.25442 480.503 -34.5782 523.454 -79.56C557.456 -115.177 579.144 -156.276 587.897 -201.721C595.592 -241.722 593.506 -286.171 581.677 -333.913C558.351 -428.034 500.582 -521.316 459.16 -583.271L459.482 -583.49C500.928 -521.527 558.719 -428.191 582.054 -334.008C593.898 -286.21 595.992 -241.675 588.282 -201.65C579.505 -156.159 557.794 -114.957 523.737 -79.2934C480.754 -34.2723 423.558 2.59166 348.88 33.4083C283.095 60.5543 212.934 79.5432 145.095 97.9124C132.224 101.395 118.913 104.971 106.073 108.548C60.9334 121.011 14.9308 133.325 -29.5659 145.232C-172.892 183.594 -321.104 223.266 -463.011 274.044C-682.521 352.587 -855.708 451.414 -992.453 576.171C-1033.13 613.316 -1071.02 653.408 -1105.81 696.12C-1139.93 738.108 -1171.12 782.397 -1199.15 828.673C-1252.84 917.21 -1297.39 1016.47 -1331.58 1123.7L-1331.95 1123.59C-1297.76 1016.32 -1253.19 917.029 -1199.48 828.477C-1171.45 782.189 -1140.25 737.89 -1106.12 695.893V695.893Z" fill="url(#paint10_linear)"/>
<path d="M-936.826 570.1C-899.762 536.529 -860.573 505.381 -819.502 476.85C-778.519 448.43 -736.005 422.282 -692.154 398.526C-610.164 353.96 -519.665 314.555 -415.479 278.059C-277.691 229.791 -133.847 192.127 5.25926 155.703C54.4307 142.824 105.281 129.513 155.119 115.921C165.935 112.972 177.081 109.976 187.85 107.074C256.458 88.6102 327.396 69.5272 393.87 42.3499C469.168 11.5724 527.407 -25.3543 571.919 -70.5479C607.098 -106.243 630.456 -147.46 641.327 -193.038C650.951 -233.4 651.046 -278.312 641.618 -326.533C633.57 -367.695 618.275 -412.677 596.125 -460.223C578.547 -498.154 556.319 -538.399 528.356 -583.216L528.686 -583.427C556.695 -538.563 578.885 -498.303 596.548 -460.357C618.675 -412.779 633.978 -367.805 642.041 -326.58C651.454 -278.304 651.383 -233.33 641.743 -192.921C630.856 -147.272 607.475 -105.992 572.233 -70.2342C527.658 -25.0092 469.365 11.9489 394.027 42.7107C327.529 69.8959 256.576 88.9867 187.96 107.45C177.191 110.352 166.045 113.348 155.229 116.297C105.39 129.89 54.5406 143.2 5.36132 156.079C-133.737 192.504 -277.565 230.168 -415.345 278.436C-519.508 314.923 -609.992 354.321 -691.957 398.879C-735.802 422.637 -778.308 448.787 -819.282 477.211C-860.335 505.738 -899.511 536.875 -936.568 570.43C-1091.14 710.874 -1200.77 897.044 -1262.4 1123.77L-1262.78 1123.66C-1201.13 896.833 -1091.46 710.599 -936.826 570.1Z" fill="url(#paint11_linear)"/>
<path d="M-885.137 567.771C-848.638 534.531 -809.919 503.813 -769.248 475.831C-728.596 447.92 -686.384 422.354 -642.817 399.256C-562.17 356.321 -472.345 318.249 -368.221 282.852C-233.217 236.952 -92.6364 200.724 43.3088 165.695C95.202 152.322 148.86 138.494 201.451 124.329C210.341 121.929 219.293 119.529 228.308 117.129C298.492 98.3752 371.061 78.9863 439.01 51.3697C515.877 20.1452 575.654 -17.4874 621.829 -63.6615C657.635 -99.4666 682.225 -140.731 694.821 -186.309C706.077 -226.937 708.155 -272.115 701.002 -320.587C689.793 -396.825 655.933 -482.742 597.553 -583.216L597.89 -583.443C656.309 -482.891 690.178 -396.935 701.426 -320.642C708.587 -272.115 706.5 -226.89 695.229 -186.207C682.585 -140.558 657.988 -99.2391 622.135 -63.3791C575.928 -17.1658 516.081 20.4903 439.191 51.7384C371.226 79.3549 298.641 98.7517 228.441 117.505C219.447 119.916 210.495 122.316 201.585 124.705C148.993 138.878 95.3355 152.699 43.4423 166.072C-92.5029 201.108 -233.076 237.329 -368.064 283.221C-472.164 318.61 -561.966 356.682 -642.59 399.601C-686.146 422.691 -728.348 448.25 -768.989 476.152C-809.658 504.123 -848.374 534.83 -884.871 568.061C-963.911 640.307 -1030.55 726.176 -1082.94 823.277C-1131.58 913.335 -1168.64 1014.42 -1193.2 1123.68L-1193.59 1123.59C-1169.01 1014.27 -1131.9 913.163 -1083.29 823.065C-1030.87 725.949 -964.209 640.048 -885.137 567.771Z" fill="url(#paint12_linear)"/>
<path d="M-839.19 570.367C-803.302 536.96 -764.997 506.248 -724.587 478.482C-684.151 450.76 -642.083 425.498 -598.611 402.832C-519.595 361.427 -430.029 324.241 -324.807 289.174C-191.905 244.874 -53.6537 209.83 80.0403 175.939C132.075 162.746 185.882 149.106 238.614 135.153C246.646 133.02 254.709 130.889 262.804 128.761C335.028 109.709 409.706 90.0142 479.624 62.0525C558.609 30.4593 620.55 -7.68311 668.976 -54.5552C706.069 -90.4544 732.384 -131.82 747.185 -177.493C760.48 -218.513 764.841 -264.115 760.15 -313.026C752.558 -392.245 722.007 -480.585 666.749 -583.2L667.094 -583.38C722.376 -480.726 752.942 -392.3 760.543 -313.066C765.249 -264.099 760.872 -218.443 747.561 -177.375C732.737 -131.632 706.39 -90.2192 669.251 -54.2337C643.273 -29.0878 614.22 -7.0086 580.438 13.2744C550.475 31.2593 517.548 47.3461 479.773 62.4525C409.832 90.4299 335.137 110.125 262.906 129.176C254.811 131.31 246.748 133.44 238.716 135.569C185.984 149.561 132.177 163.201 80.1422 176.354C-53.5519 210.246 -191.795 245.29 -324.681 289.581C-429.887 324.649 -519.43 361.819 -598.423 403.216C-641.88 425.854 -683.935 451.087 -724.359 478.78C-764.756 506.53 -803.048 537.227 -838.923 570.618C-915.79 642.479 -979.237 728.066 -1027.6 825.003C-1072.25 914.512 -1104.7 1014.99 -1124.01 1123.64L-1124.4 1123.57C-1105.07 1014.88 -1072.63 914.37 -1027.92 824.822C-979.566 727.886 -916.057 642.26 -839.19 570.367Z" fill="url(#paint13_linear)"/>
<path d="M-789.014 568.861C-753.776 535.826 -715.997 505.609 -676.027 478.489C-637.97 452.551 -595.944 427.766 -551.11 404.824C-474.204 365.474 -385.516 329.614 -279.981 295.182C-149.942 252.757 -14.8674 219.006 115.807 186.37C170.712 172.652 227.476 158.471 283.087 143.843L299.755 139.467C373.987 119.991 450.744 99.8497 522.513 71.3232C561.26 55.9188 595.105 39.5104 625.978 21.1255C660.756 0.450346 690.797 -22.0994 717.803 -47.7944C755.64 -83.7877 783.242 -125.185 799.839 -170.834C814.844 -212.129 821.236 -257.982 818.836 -307.12C816.71 -350.62 807.635 -397.884 791.854 -447.611C778.41 -490.036 759.593 -535.669 735.937 -583.216L736.29 -583.388C759.946 -535.81 778.771 -490.162 792.246 -447.698C808.043 -397.939 817.126 -350.636 819.252 -307.105C821.652 -257.919 815.252 -212.011 800.231 -170.63C783.61 -124.918 755.985 -83.474 718.101 -47.4336C691.064 -21.723 661.007 0.842533 626.205 21.5334C595.317 39.9105 561.449 56.3267 522.67 71.7311C450.846 100.273 374.081 120.415 299.841 139.89L283.174 144.267C227.555 158.903 170.783 173.083 115.885 186.794C-14.7575 219.438 -149.848 253.188 -279.871 295.597C-385.391 330.022 -474.063 365.882 -550.946 405.224C-595.764 428.151 -637.782 452.928 -675.823 478.866C-715.779 505.972 -753.544 536.173 -788.771 569.19C-864.705 640.777 -926.034 726.607 -971.103 824.32C-1012.42 913.931 -1040.6 1014.66 -1054.84 1123.69L-1055.23 1123.64C-1040.98 1014.56 -1012.8 913.798 -971.464 824.156C-926.363 726.356 -864.987 640.479 -789.014 568.861Z" fill="url(#paint14_linear)"/>
<path d="M-840.272 685.994C-810.142 642.042 -775.373 601.457 -736.564 564.939C-703.268 533.605 -665.438 503.8 -624.118 476.309C-586.179 451.093 -543.941 426.966 -498.574 404.589C-421.753 366.69 -335.717 333.144 -227.813 299.001C-103.554 259.682 25.2451 227.917 149.801 197.186C208.432 182.723 269.071 167.766 328.447 152.22L335.953 150.251C491.374 109.568 652.097 67.5036 769.32 -43.9823C807.259 -80.062 835.567 -121.412 853.458 -166.88C869.757 -208.286 877.828 -254.17 877.459 -303.261C877.13 -347.184 870.023 -394.809 856.352 -444.827C844.445 -488.311 827.221 -534.892 805.149 -583.216L805.502 -583.38C827.589 -535.034 844.822 -488.436 856.728 -444.897C870.416 -394.841 877.522 -347.177 877.851 -303.222C878.228 -254.083 870.141 -208.152 853.826 -166.692C835.912 -121.201 807.549 -79.7796 769.594 -43.6608C652.293 67.8958 491.523 109.976 336.047 150.675L328.549 152.636C269.165 168.189 208.542 183.147 149.896 197.61C25.3393 228.332 -103.452 260.098 -227.687 299.409C-335.576 333.552 -421.596 367.09 -498.401 404.973C-543.752 427.351 -585.975 451.469 -623.898 476.678C-665.195 504.13 -703.009 533.934 -736.289 565.23C-775.074 601.732 -809.824 642.296 -839.942 686.222C-869.094 728.941 -893.931 774.449 -914.088 822.077C-952.365 912.143 -976.429 1013.6 -985.621 1123.62H-986.006C-976.821 1013.56 -952.741 912.064 -914.449 821.96C-894.285 774.294 -869.437 728.749 -840.272 685.994V685.994Z" fill="url(#paint15_linear)"/>
<path d="M-687.816 564.273C-654.873 533.958 -617.334 505.039 -576.28 478.317C-538.631 453.783 -496.668 430.276 -451.653 408.456C-375.994 371.772 -288.601 338.234 -184.477 305.919C-63.3407 268.318 62.094 237.721 183.387 208.136C245.132 193.069 308.979 177.499 371.477 161.193C450.328 140.612 531.87 119.341 608.808 88.8612C649.924 72.5783 685.95 55.1974 718.948 35.7222C756.048 13.8235 788.309 -10.0832 817.597 -37.3625C953.581 -164.08 972.672 -347.733 874.345 -583.216L874.706 -583.372C973.104 -347.718 953.989 -163.916 817.863 -37.0802C788.56 -9.76947 756.268 14.1529 719.152 36.0595C686.13 55.5425 650.128 72.9234 608.957 89.2299C531.988 119.717 450.438 140.996 371.579 161.569C309.073 177.876 245.226 193.453 183.481 208.512C62.188 238.097 -63.231 268.694 -184.383 306.288C-288.491 338.603 -375.869 372.172 -451.504 408.809C-496.503 430.621 -538.419 454.12 -576.092 478.615C-617.13 505.33 -654.638 534.24 -687.573 564.539C-762.636 633.561 -820.294 720.16 -858.948 821.85C-893.122 911.774 -912.472 1013.28 -916.457 1123.57H-916.849C-912.865 1013.24 -893.499 911.688 -859.308 821.724C-820.616 719.988 -762.927 633.365 -687.816 564.273Z" fill="url(#paint16_linear)"/>
<path d="M-738.227 686.175C-709.841 642.119 -675.554 602.159 -636.322 567.41C-601.424 536.636 -564.322 508.455 -525.312 483.094C-486.287 457.779 -445.781 434.824 -404.011 414.354C-327.826 376.823 -242.033 343.764 -141.737 313.174C-23.7144 277.205 98.3398 247.69 216.378 219.163C281.244 203.477 348.307 187.28 413.934 170.181C501.069 147.49 579.269 126.258 653.948 96.4535C695.339 79.9275 731.757 62.3034 765.327 42.5851C802.851 20.5138 835.684 -3.53401 865.725 -30.9231C905.453 -67.1753 936.482 -108.573 957.942 -153.947C977.787 -195.901 989.921 -242.263 994.023 -291.763C1001.1 -378.166 984.148 -476.232 943.541 -583.216L943.91 -583.357C984.532 -476.318 1001.5 -378.189 994.329 -291.716C990.226 -242.169 978.069 -195.76 958.248 -153.759C936.765 -108.337 905.696 -66.9087 865.937 -30.6173C835.896 -3.21247 803.039 20.8511 765.492 42.9381C731.953 62.6721 695.511 80.2962 654.113 96.83C579.45 126.635 501.234 147.859 414.099 170.558C348.472 187.649 281.401 203.861 216.535 219.532C98.5045 248.058 -23.5497 277.573 -141.549 313.52C-241.821 344.109 -327.591 377.176 -403.76 414.699C-445.517 435.162 -486.01 458.108 -525.022 483.415C-564.019 508.765 -601.112 536.933 -636.001 567.692C-675.218 602.421 -709.493 642.357 -737.873 686.386C-764.447 727.619 -786.504 773.448 -803.399 822.603C-833.73 910.802 -848.476 1012.07 -847.229 1123.57H-847.621C-848.868 1012.02 -834.122 910.723 -803.767 822.477C-786.88 773.299 -764.816 727.415 -738.227 686.175Z" fill="url(#paint17_linear)"/>
<path d="M-740.478 794.296C-725.63 752.569 -704.335 712.011 -677.18 673.759C-651.994 638.291 -621.028 603.756 -585.135 571.112C-551.18 540.4 -514.914 512.342 -476.659 487.188C-438.462 462.116 -398.726 439.472 -357.687 419.39C-283.424 382.847 -198.956 350.58 -99.4445 320.751C15.4327 286.319 134.122 257.847 248.897 230.325C316.878 214.018 387.18 197.163 455.968 179.241C539.4 157.491 620.746 135.372 698.727 103.983C785.548 69.0409 855.819 26.9846 913.563 -24.57C954.264 -60.9084 986.666 -102.314 1009.89 -147.641C1031.52 -189.869 1045.69 -236.467 1051.99 -286.147C1063.2 -374.605 1050.01 -474.538 1012.77 -583.169L1013.14 -583.302C1050.38 -474.608 1063.58 -374.613 1052.36 -286.1C1046.08 -236.373 1031.88 -189.728 1010.22 -147.46C986.971 -102.094 954.53 -60.6496 913.799 -24.2798C856.023 27.314 785.713 69.386 698.884 104.352C620.88 135.725 539.518 157.867 456.07 179.648C387.321 197.571 317.019 214.434 248.999 230.732C134.224 258.263 15.5426 286.726 -99.3189 321.159C-198.815 350.964 -283.267 383.239 -357.507 419.774C-398.53 439.848 -438.25 462.481 -476.431 487.541C-514.672 512.695 -550.922 540.752 -584.861 571.465C-620.73 604.086 -651.681 638.605 -676.851 674.049C-703.989 712.27 -725.269 752.797 -740.101 794.492C-758.079 845.035 -769.719 898.237 -775.688 957.156C-780.864 1008.19 -781.641 1062.64 -778.041 1123.61H-778.433C-782.017 1062.62 -781.241 1008.15 -776.08 957.093C-770.111 898.103 -758.463 844.87 -740.478 794.296Z" fill="url(#paint18_linear)"/>
<path d="M-622.408 676.284C-596.725 639.543 -567.22 605.627 -534.388 575.104C-472.007 516.828 -399.195 467.65 -311.778 424.652C-239.492 389.13 -156.327 357.678 -57.5286 328.516C54.2034 295.574 169.528 268.028 281.056 241.454C352.158 224.497 425.684 206.943 497.539 188.182C573.771 168.26 661.901 144.259 743.2 111.254C830.656 75.7861 902.002 33.3377 961.331 -18.4915C1003.04 -54.924 1036.83 -96.345 1061.79 -141.633C1085.23 -184.128 1101.4 -230.953 1109.86 -280.814C1125.19 -371.209 1115.8 -472.977 1081.94 -583.231L1082.32 -583.349C1116.19 -473.008 1125.59 -371.201 1110.25 -280.743C1101.78 -230.843 1085.6 -183.979 1062.14 -141.437C1037.15 -96.1332 1003.31 -54.6808 961.589 -18.2248C902.221 33.6671 830.845 76.1312 743.357 111.638C662.043 144.643 573.896 168.66 497.657 188.582C425.778 207.406 352.252 224.897 281.173 241.854C169.653 268.451 54.3368 295.974 -57.3795 328.916C-156.162 358.07 -239.304 389.514 -311.575 425.029C-398.952 467.971 -471.741 517.165 -534.09 575.418C-566.897 605.909 -596.383 639.788 -622.055 676.488C-647.994 713.83 -668.835 753.267 -684.02 793.7C-725.403 903.986 -719.049 1027.89 -708.853 1123.51L-709.245 1123.55C-719.442 1027.86 -725.771 903.931 -684.373 793.566C-669.219 753.11 -648.363 713.65 -622.408 676.284Z" fill="url(#paint19_linear)"/>
<path d="M-632.809 833.395C-621.31 787.218 -603.547 742.831 -580.014 701.469C-555.487 658.566 -524.073 618.376 -486.636 582.014C-426.938 524.028 -356.573 475.274 -271.541 432.99C-201.584 398.181 -120.56 367.435 -23.8246 338.995C87.4054 306.296 202.204 279.032 313.222 252.67C386.803 235.195 462.894 217.124 537.235 197.641C618.37 176.378 704.492 152.22 784.544 119.733C872.345 84.108 944.624 41.8635 1005.51 -9.40089C1090.22 -80.7758 1144.62 -169.547 1167.08 -273.284C1187.26 -366.228 1181.88 -470.498 1151.15 -583.216L1151.52 -583.318C1182.28 -470.545 1187.66 -366.22 1167.5 -273.237C1144.99 -169.406 1090.57 -80.5483 1005.76 -9.13424C944.844 42.1615 872.533 84.4218 784.693 120.062C704.618 152.557 618.487 176.723 537.337 197.986C462.988 217.477 386.897 235.548 313.316 253.023C202.298 279.385 87.5073 306.641 -23.7148 339.301C-120.426 367.741 -201.435 398.471 -271.361 433.264C-356.362 475.556 -426.664 524.295 -486.369 582.289C-523.775 618.62 -555.165 658.778 -579.708 701.658C-603.222 742.988 -620.971 787.34 -632.464 833.481C-643.531 877.577 -649.61 925.194 -650.504 975.015C-651.359 1021.53 -647.727 1071.49 -639.719 1123.49L-640.104 1123.55C-648.12 1071.53 -651.751 1021.55 -650.896 975.008C-649.971 925.163 -643.892 877.522 -632.809 833.395Z" fill="url(#paint20_linear)"/>
<path d="M-525.704 705.705C-502.558 662.746 -472.533 622.674 -436.468 586.603C-378.692 528.813 -309.88 480.497 -226.095 438.888C-157.205 404.667 -79.7335 375.553 17.7074 347.254C125.792 315.88 237.242 289.448 345.021 263.902C421.707 245.729 501.006 226.936 578.446 206.504C659.313 185.162 745.616 160.722 828.797 126.69C917.344 90.4533 990.76 47.8009 1053.25 -3.69881C1140.42 -75.5443 1198.16 -164.551 1224.88 -268.249C1249.27 -362.918 1247.74 -468.883 1220.35 -583.2L1220.73 -583.294C1248.14 -468.914 1249.66 -362.895 1225.25 -268.147C1198.52 -164.371 1140.73 -75.2933 1053.48 -3.39291C990.956 48.1303 917.509 90.7984 828.923 127.051C745.718 161.099 659.407 185.539 578.524 206.881C501.077 227.313 421.778 246.098 345.091 264.286C237.312 289.832 125.87 316.241 17.7936 347.63C-79.6238 375.921 -157.079 405.028 -225.946 439.233C-309.692 480.803 -378.473 529.126 -436.217 586.885C-472.251 622.965 -502.252 662.966 -525.383 705.893C-547.586 747.32 -563.893 791.645 -573.833 837.583C-592.61 923.374 -591.504 1019.55 -570.546 1123.48L-570.931 1123.55C-591.897 1019.59 -593.003 923.351 -574.217 837.505C-564.262 791.527 -547.933 747.165 -525.704 705.705V705.705Z" fill="url(#paint21_linear)"/>
<path d="M-471.639 710.411C-450.014 667.39 -421.385 627.365 -386.544 591.458C-330.705 533.887 -263.399 486.011 -180.798 445.077C-113.955 411.954 -37.7 383.561 59.2155 355.717C164.163 325.559 272.295 299.935 376.881 275.157C456.658 256.247 539.149 236.725 619.664 215.273C696.413 194.849 786.583 169.123 873.082 133.435C962.429 96.5712 1037.01 53.4953 1101.13 1.77593C1139.86 -29.4721 1173.85 -63.7164 1202.16 -100.008C1232.29 -138.636 1256.17 -179.854 1273.15 -222.514C1295.11 -277.653 1306.46 -336.157 1307.89 -401.343C1309.11 -456.435 1303.1 -515.912 1289.54 -583.184L1289.92 -583.255C1303.49 -515.959 1309.53 -456.451 1308.28 -401.335C1306.84 -336.07 1295.48 -277.519 1273.51 -222.341C1256.52 -179.642 1232.62 -138.417 1202.47 -99.7333C1174.14 -63.4184 1140.13 -29.1427 1101.38 2.11319C1037.25 53.8796 962.617 96.9398 873.231 133.827C786.717 169.53 696.523 195.241 619.711 215.681C539.188 237.109 456.697 256.663 376.92 275.565C272.357 300.35 164.233 325.975 59.2547 356.125C-37.6058 383.961 -113.846 412.346 -180.665 445.453C-263.227 486.372 -330.478 534.225 -386.301 591.756C-421.11 627.639 -449.716 667.633 -471.325 710.623C-491.718 751.181 -506.347 795.331 -514.818 841.905C-530.301 926.951 -525.799 1021.69 -501.374 1123.48L-501.758 1123.58C-526.168 1021.72 -530.693 926.92 -515.21 841.819C-506.692 795.214 -492.04 751.008 -471.639 710.411Z" fill="url(#paint22_linear)"/>
<path d="M-417.785 715.509C-397.776 672.441 -370.527 632.369 -336.8 596.548C-282.898 539.229 -217.067 491.784 -135.549 451.508C-70.7607 419.499 4.31031 391.804 100.708 364.345C202.534 335.324 307.363 310.453 408.742 286.381C491.586 266.71 577.253 246.38 660.819 223.901C732.98 204.489 827.409 177.397 917.485 139.922C1007.69 102.383 1083.5 58.8995 1149.23 6.97622C1189.39 -24.7425 1224.81 -59.3397 1254.52 -95.8663C1286.37 -135.028 1311.89 -176.732 1330.38 -219.792C1353.96 -274.735 1367.09 -333.411 1370.52 -399.178C1373.37 -453.909 1369.62 -512.39 1358.72 -583.216L1359.11 -583.278C1370.02 -512.405 1373.78 -453.862 1370.92 -399.178C1367.48 -333.356 1354.34 -274.633 1330.75 -219.651C1312.25 -176.512 1286.7 -134.793 1254.82 -95.5997C1225.1 -59.0573 1189.66 -24.4365 1149.48 7.29782C1083.73 59.2446 1007.89 102.744 917.642 140.298C827.55 177.782 733.129 204.881 660.929 224.293C577.363 246.772 491.688 267.11 408.836 286.781C307.465 310.845 202.643 335.732 100.826 364.737C4.44377 392.189 -70.6038 419.876 -135.36 451.869C-216.848 492.129 -282.639 539.55 -336.501 596.831C-370.229 632.667 -397.431 672.661 -417.424 715.69C-436.162 756.02 -449.002 799.99 -455.591 846.376C-467.427 929.767 -459.513 1023 -432.131 1123.48L-432.507 1123.59C-459.96 1023.06 -467.803 929.767 -455.975 846.321C-449.394 799.88 -436.539 755.879 -417.785 715.509Z" fill="url(#paint23_linear)"/>
<path d="M-363.005 718.686C-344.306 675.437 -318.045 635.318 -284.945 599.466C-232.189 542.28 -166.829 495.243 -85.1458 455.681C-21.4088 424.809 51.1759 398.667 150.201 370.91C246.254 343.983 344.997 320.445 440.493 297.676C527.086 277.04 616.628 255.69 703.912 231.885C811.636 202.496 892.276 175.609 965.386 144.706C1056.94 105.991 1134.28 61.4563 1201.85 8.55263C1285.85 -57.2613 1348.13 -132.566 1386.96 -215.259C1412.01 -268.594 1426.96 -327.788 1432.57 -396.174C1437.12 -451.258 1435.64 -510.688 1427.93 -583.255H1428.32C1436.03 -510.68 1437.51 -451.211 1432.96 -396.104C1427.31 -327.67 1412.38 -268.452 1387.31 -215.047C1348.46 -132.299 1286.13 -56.9554 1202.09 8.89774C1134.53 61.825 1057.16 106.375 965.574 145.09C892.456 176.001 811.84 202.888 704.053 232.285C616.77 256.098 527.219 277.44 440.618 298.084C345.13 320.83 246.395 344.36 150.342 371.31C51.3484 399.06 -21.2205 425.202 -84.9654 456.018C-166.602 495.565 -231.915 542.562 -284.647 599.717C-317.708 635.546 -343.945 675.633 -362.628 718.842C-380.025 759.071 -391.297 803.002 -396.144 849.419C-404.733 931.532 -393.54 1023.74 -362.95 1123.51L-363.327 1123.62C-393.964 1023.83 -405.148 931.579 -396.568 849.404C-391.705 802.924 -380.418 758.954 -363.005 718.686Z" fill="url(#paint24_linear)"/>
<path d="M-309.347 724.215C-292.326 680.928 -267.462 640.809 -235.453 604.996C-184.61 548.1 -120.614 501.463 -39.7941 462.544C39.1595 424.48 125.604 398.307 192.102 379.757C280.962 354.972 374.857 333.481 465.749 312.688C603.161 281.244 745.255 248.733 878.894 203.155C950.922 178.59 1014.46 152.401 1073.13 123.09C1139.11 90.1476 1197.2 54.1464 1250.72 13.0862C1343.86 -58.3592 1408.66 -134.817 1443.31 -214.16C1467.63 -269.801 1483.58 -329.145 1492.13 -395.57C1499.5 -452.921 1501.13 -514.319 1497.08 -583.271H1497.47C1501.52 -514.296 1499.9 -452.874 1492.51 -395.5C1483.96 -329.035 1467.99 -269.66 1443.67 -213.98C1408.99 -134.574 1344.15 -58.1004 1250.96 13.3921C1197.42 54.468 1139.3 90.4613 1073.31 123.435C1014.61 152.754 951.063 178.95 879.02 203.516C745.357 249.102 603.255 281.62 465.835 313.065C374.991 333.85 281.056 355.341 192.204 380.126C125.729 398.675 39.3007 424.833 -39.6215 462.889C-120.411 501.824 -184.352 548.382 -235.162 605.247C-267.141 641.036 -291.981 681.108 -308.986 724.357C-324.673 764.358 -334.133 808.046 -337.011 854.267C-339.639 896.503 -336.854 941.909 -328.752 989.228C-321.465 1031.77 -309.684 1076.93 -293.73 1123.48L-294.107 1123.6C-310.061 1077.04 -321.85 1031.83 -329.136 989.291C-337.247 941.948 -340.031 896.511 -337.396 854.243C-334.525 807.975 -325.081 764.232 -309.347 724.215Z" fill="url(#paint25_linear)"/>
<path d="M-255.658 729.909C-240.339 686.59 -216.879 646.479 -185.928 610.69C-136.992 554.115 -74.2825 507.941 5.76925 469.556C81.5462 433.217 163.849 408.268 234.363 388.651C321.49 364.415 413.024 343.05 501.539 322.382C640.849 289.864 784.905 256.231 920.638 209.704C993.78 184.605 1058.43 158.008 1118.3 128.321C1185.58 94.9476 1245.04 58.617 1300.08 17.2509C1344.56 -16.1698 1381.75 -50.5552 1413.76 -87.8505C1447.98 -127.726 1475.23 -169.665 1497.06 -216.066C1522.68 -270.515 1541.37 -331.019 1552.61 -395.884C1562.57 -453.408 1567.03 -514.704 1566.26 -583.302H1566.65C1567.44 -514.68 1562.95 -453.353 1552.99 -395.845C1541.75 -330.941 1523.05 -270.405 1497.41 -215.925C1475.59 -169.477 1448.29 -127.515 1414.05 -87.5995C1382.02 -50.2728 1344.81 -15.8639 1300.32 17.5725C1245.27 58.9464 1185.81 95.2927 1118.48 128.682C1058.61 158.377 993.944 185.005 920.779 210.081C785.03 256.616 640.967 290.248 501.641 322.775C413.134 343.434 321.607 364.807 234.48 389.036C163.982 408.644 81.7031 433.594 5.95749 469.917C-74.0472 508.286 -136.717 554.421 -185.614 610.957C-216.534 646.699 -239.971 686.763 -255.274 730.043C-269.321 769.762 -276.89 813.238 -277.761 859.255C-278.545 900.864 -273.886 945.681 -263.902 992.451C-255.078 1033.8 -241.822 1077.88 -224.519 1123.48L-224.887 1123.62C-242.198 1078 -255.477 1033.9 -264.286 992.538C-274.278 945.728 -278.946 900.887 -278.153 859.247C-277.291 813.191 -269.721 769.675 -255.658 729.909Z" fill="url(#paint26_linear)"/>
<path d="M-136.309 616.565C-89.2476 560.335 -27.7616 514.601 51.6469 476.74C124.404 442.057 203.028 418.205 277.087 397.593C362.371 373.859 451.45 352.611 537.604 332.061C678.867 298.335 824.939 263.526 962.805 215.979C1037.08 190.362 1102.87 163.287 1163.92 133.2C1232.53 99.3948 1293.34 62.7113 1349.95 21.0393C1443.29 -47.6609 1515.14 -138.527 1563.62 -249.032C1606.82 -347.49 1630.99 -459.972 1635.45 -583.357H1635.84C1631.38 -459.917 1607.2 -347.381 1563.99 -248.883C1515.48 -138.291 1443.55 -47.3943 1350.18 21.3452C1293.59 63.0093 1232.73 99.7007 1164.1 133.506C1103.03 163.601 1037.23 190.684 962.939 216.301C825.048 263.847 679.001 298.695 537.691 332.383C451.544 352.933 362.473 374.18 277.197 397.907C203.122 418.511 124.545 442.363 51.8194 477.039C-27.542 514.867 -88.9809 560.571 -136.003 616.753C-165.887 652.456 -187.92 692.504 -201.505 735.8C-213.89 775.268 -219.546 818.493 -218.424 864.298C-217.396 905.264 -210.847 949.47 -198.972 995.691C-188.665 1035.78 -173.982 1078.75 -155.338 1123.42L-155.699 1123.57C-174.358 1078.86 -189.042 1035.9 -199.348 995.785C-211.239 949.509 -217.789 905.303 -218.816 864.306C-219.969 818.461 -214.274 775.189 -201.881 735.674C-188.281 692.402 -166.217 652.307 -136.309 616.565Z" fill="url(#paint27_linear)"/>
<path d="M-147.965 741.698C-135.996 698.145 -115.071 657.569 -86.5259 622.565C-41.2998 566.704 19.0254 521.385 97.9084 484.027C164.093 452.653 234.716 430.362 320.392 406.503C404.397 383.114 490.535 361.882 573.842 341.348C672.31 317.08 774.136 291.989 873.083 263.165C986.666 230.074 1071.71 200.567 1148.86 167.475C1248.16 124.894 1330.05 77.6999 1399.23 23.204C1492.25 -50.0846 1565.63 -141.703 1617.35 -249.087C1665.02 -348.133 1694.38 -460.592 1704.62 -583.357H1705.01C1694.76 -460.545 1665.38 -348.055 1617.68 -248.977C1565.91 -141.523 1492.52 -49.8414 1399.46 23.4864C1330.26 78.0058 1248.34 125.215 1149 167.805C1071.84 200.896 986.775 230.411 873.177 263.494C774.222 292.319 672.381 317.418 573.92 341.685C490.621 362.211 404.499 383.443 320.478 406.832C234.818 430.684 164.218 452.991 98.0652 484.333C19.2371 521.675 -41.0487 566.955 -86.2592 622.769C-115.131 658.417 -135.776 698.45 -147.62 741.761C-158.35 780.978 -162.162 823.936 -158.961 869.506C-153.683 944.709 -129.869 1027.77 -86.1728 1123.44L-86.5338 1123.61C-130.246 1027.92 -154.067 944.779 -159.354 869.53C-162.522 823.967 -158.703 780.946 -147.965 741.698Z" fill="url(#paint28_linear)"/>
<path d="M-94.3778 749.706C-84.5503 706.495 -65.3844 665.959 -38.2254 630.942C4.35742 575.653 62.6118 530.789 139.863 493.784C210.636 459.885 288.892 436.653 356.754 417.539C441.214 393.742 530.427 372.235 616.707 351.442C908.331 281.15 1209.88 208.465 1442.82 26.82C1537.87 -47.3001 1614.59 -139.311 1670.74 -246.663C1723 -346.58 1757.69 -459.863 1773.82 -583.38L1774.22 -583.333C1758.07 -459.761 1723.37 -346.463 1671.06 -246.514C1614.84 -139.107 1538.12 -47.057 1443.03 27.0945C1210.02 208.795 908.426 281.487 616.769 351.811C530.49 372.612 441.285 394.11 356.833 417.907C289.017 437.022 210.746 460.261 139.997 494.129C62.8078 531.103 4.60065 575.928 -37.9508 631.177C-65.0644 666.161 -84.193 706.654 -93.9935 749.816C-102.802 788.609 -104.543 831.152 -99.1544 876.259C-90.5265 948.771 -63.6074 1029.65 -16.938 1123.52L-17.2909 1123.69C-63.976 1029.79 -90.8794 948.866 -99.5466 876.298C-104.935 831.128 -103.194 788.547 -94.3778 749.706Z" fill="url(#paint29_linear)"/>
<path d="M-39.9429 755.777C-31.94 712.736 -14.1207 672.119 12.1306 637.083C52.9722 582.218 110.238 537.762 187.192 501.165C255.188 468.834 330.353 446.449 401.51 426.292C483.138 403.177 568.767 382 651.579 361.521C798.584 325.167 950.593 287.581 1093.68 236.254C1170.8 208.591 1238.83 179.39 1301.63 146.973C1372.26 110.525 1434.42 71.0331 1491.67 26.263C1587.36 -48.5865 1666.12 -140.621 1725.81 -247.267C1781.68 -347.13 1821.12 -460.231 1843.02 -583.412L1843.41 -583.341C1821.49 -460.074 1782.04 -346.981 1726.14 -247.079C1666.44 -140.409 1587.63 -48.312 1491.9 26.5689C1434.64 71.3625 1372.47 110.862 1301.81 147.357C1238.99 179.774 1170.95 208.983 1093.81 236.654C950.703 287.989 798.686 325.583 651.674 361.937C568.869 382.408 483.24 403.585 401.62 426.7C330.471 446.857 255.329 469.234 187.364 501.549C110.497 538.115 53.239 582.54 12.4523 637.342C-13.7617 672.333 -31.5568 712.895 -39.5508 755.879C-46.7512 794.414 -46.61 836.666 -39.1821 881.53C-32.7504 920.3 -20.5928 962.395 -3.0388 1006.64C11.315 1042.85 29.4101 1081.08 52.2664 1123.51L51.9211 1123.69C29.057 1081.23 10.954 1042.99 -3.40762 1006.76C-20.9616 962.49 -33.1347 920.371 -39.5665 881.569C-47.0257 836.674 -47.1512 794.351 -39.9429 755.777Z" fill="url(#paint30_linear)"/>
<path d="M16.5622 758.428C23.2784 715.27 40.4623 674.413 66.6122 639.428C106.395 585.826 162.916 542.398 239.399 506.679C304.328 476.348 373.446 455.697 450.548 433.806C528.012 411.774 608.769 391.279 686.868 371.451C837.245 333.269 992.768 293.801 1139.04 240.207C1217.87 211.328 1287.44 180.888 1351.73 147.153C1424 109.215 1487.69 68.1703 1546.44 21.659C1641.64 -53.7239 1721.52 -145.405 1783.86 -250.907C1842.43 -350.047 1886.03 -462.098 1913.43 -584L1913.81 -583.914C1886.4 -461.972 1842.79 -349.859 1784.19 -250.703C1721.84 -145.186 1641.93 -53.4493 1546.68 21.9649C1487.92 68.4919 1424.2 109.552 1351.91 147.498C1287.59 181.225 1218.02 211.689 1139.17 240.576C992.862 294.17 837.355 333.646 686.97 371.827C608.871 391.655 528.113 412.158 450.658 434.182C373.563 456.144 304.469 476.717 239.563 507.032C163.143 542.727 106.677 586.109 66.9259 639.663C40.8144 674.598 23.6551 715.395 16.9467 758.491C10.8993 796.923 12.5701 839.231 21.9118 884.142C40.8933 975.4 88.4882 1064.12 122.671 1122.94L122.333 1123.14C88.1508 1064.31 40.5166 975.533 21.5273 884.22C12.1777 839.27 10.507 796.947 16.5622 758.428Z" fill="url(#paint31_linear)"/>
<path d="M70.2909 765.205C75.22 722.274 91.1193 681.335 116.458 646.33C202.055 527.252 358.214 482.403 495.978 442.896C569.928 421.672 646.575 401.679 720.744 382.337C873.694 342.438 1031.85 301.182 1180.61 245.705C1260.77 215.814 1331.57 184.394 1397.1 149.64C1470.72 110.587 1535.75 68.3978 1595.89 20.6707C1691.58 -55.2925 1773.34 -146.966 1838.8 -251.824C1900.45 -350.581 1948.44 -462.161 1981.41 -583.467L1981.79 -583.365C1948.85 -462.02 1900.8 -350.416 1839.13 -251.589C1773.64 -146.699 1691.88 -54.9866 1596.13 21.008C1535.98 68.7194 1470.88 110.925 1397.27 149.985C1331.74 184.747 1260.92 216.175 1180.79 246.074C1032 301.558 873.836 342.815 720.87 382.714C646.732 402.056 570.061 422.056 496.12 443.273C358.41 482.796 202.33 527.589 116.803 646.558C91.5058 681.511 75.6309 722.387 70.7065 765.252C66.22 803.449 69.7263 845.435 81.123 890.04C90.8961 928.308 106.222 968.309 127.847 1012.33C144.546 1046.26 164.508 1081.59 190.682 1123.51L190.353 1123.73C164.171 1081.79 144.201 1046.45 127.502 1012.51C105.822 968.458 90.5273 928.426 80.7385 890.15C69.3025 845.49 65.7966 803.496 70.2909 765.205Z" fill="url(#paint32_linear)"/>
<path d="M125.376 773.174C128.514 730.035 142.342 690.183 166.579 654.739C202.486 602.243 256.45 559.606 331.561 524.381C397.227 493.58 467.984 473.117 536.404 453.328L545.816 450.614C614.981 430.574 686.35 411.437 755.366 392.934C911.979 350.933 1073.93 307.504 1226.12 249.541C1308.1 218.324 1380.57 185.57 1447.66 149.412C1523.04 108.791 1589.7 64.9702 1651.45 15.4627C1699.77 -23.2858 1744.89 -65.8726 1786.36 -111.883C1826.86 -156.949 1863.84 -205.067 1896.95 -255.809C1960.7 -353.404 2012.42 -463.69 2050.61 -583.498L2050.99 -583.372C2012.78 -463.533 1961.05 -353.247 1897.25 -255.574C1864.12 -204.812 1827.13 -156.679 1786.61 -111.6C1745.14 -65.5765 1700.02 -22.9741 1651.7 15.7922C1589.94 65.3154 1523.26 109.129 1447.86 149.781C1380.75 185.947 1308.24 218.709 1226.27 249.933C1074.06 307.896 912.096 351.333 755.475 393.334C686.452 411.844 615.075 430.982 545.934 451.014L536.522 453.728C468.11 473.517 397.376 493.973 331.733 524.758C256.694 559.951 202.777 602.549 166.908 654.958C142.71 690.324 128.874 730.098 125.776 773.182C123.062 810.971 128.545 852.486 142.075 896.582C153.551 933.971 170.54 973.133 194.031 1016.31C216.872 1058.34 242.536 1097.62 259.831 1123.51L259.509 1123.73C242.191 1097.84 216.519 1058.52 193.623 1016.51C170.092 973.306 153.119 934.152 141.636 896.707C128.145 852.58 122.662 811.01 125.376 773.174Z" fill="url(#paint33_linear)"/>
<path d="M181.05 780.994C182.211 738.075 194.447 698.418 217.421 663.107C251.148 611.239 303.575 568.987 377.587 533.872C442.155 503.283 514.85 482.105 578.956 463.375L596.776 458.167C661 439.343 726.98 421.154 790.811 403.562C949.283 359.866 1113.21 314.688 1267.32 255.165C1350.29 223.109 1423.74 189.617 1491.84 152.769C1568.33 111.395 1636.15 66.9076 1699.13 16.804C1748.31 -22.3746 1794.46 -65.2172 1837.18 -111.357C1879.02 -156.615 1917.55 -204.825 1952.48 -255.613C2019.62 -353.224 2075.92 -463.549 2119.81 -583.522L2120.18 -583.388C2076.26 -463.384 2019.96 -353.028 1952.78 -255.385C1917.86 -204.579 1879.33 -156.348 1837.48 -111.067C1794.75 -64.9247 1748.58 -22.0821 1699.37 17.0942C1636.38 67.2291 1568.53 111.709 1492.06 153.114C1423.94 189.978 1350.48 223.462 1267.49 255.525C1113.39 315.057 949.471 360.243 790.944 403.938C727.129 421.531 661.141 439.72 596.917 458.544L579.097 463.752C514.983 482.443 442.328 503.628 377.791 534.225C303.841 569.293 251.509 611.521 217.782 663.327C194.847 698.567 182.627 738.161 181.474 780.978C180.47 818.352 187.866 859.412 203.475 902.951C231.712 981.8 282.821 1058.69 329.082 1123.5L328.761 1123.73C282.483 1058.89 231.359 981.973 203.106 903.084C187.45 859.506 180.046 818.399 181.05 780.994Z" fill="url(#paint34_linear)"/>
<path d="M264.459 908.229C246.858 864.942 237.728 824.156 237.328 787.002C236.873 744.177 247.964 704.646 270.271 669.351C302.344 618.777 353.201 577.364 425.747 542.735C488.927 512.585 559.998 491.651 622.699 473.18C631.084 470.709 639.006 468.38 646.968 466.011C706.579 448.261 767.625 430.959 826.664 414.244C988.242 368.439 1155.31 321.073 1312.3 259.314C1396.81 226.058 1471.67 191.429 1541.15 153.428C1619.16 110.776 1688.43 65.033 1752.93 13.5725C1802.33 -25.8768 1848.89 -68.7667 1892.25 -114.777C1934.78 -159.995 1974.26 -207.996 2010.41 -258.46C2079.73 -355.114 2139.83 -464.498 2189 -583.584L2189.36 -583.435C2140.17 -464.325 2080.07 -354.91 2010.73 -258.232C1974.57 -207.746 1935.09 -159.719 1892.55 -114.471C1849.18 -68.4521 1802.61 -25.5519 1753.19 13.9098C1688.67 65.3781 1619.38 111.168 1541.36 153.805C1471.86 191.798 1396.99 226.434 1312.46 259.69C1155.48 321.457 988.383 368.823 826.79 414.637C767.751 431.374 706.704 448.677 647.101 466.403C639.132 468.756 631.21 471.109 622.825 473.572C560.139 492.043 489.084 512.969 425.951 543.104C353.468 577.701 302.665 619.067 270.648 669.578C248.356 704.725 237.289 744.224 237.705 786.978C238.105 824.077 247.227 864.816 264.812 908.057C279.401 943.932 299.653 981.659 326.721 1023.35C350.142 1059.43 374.928 1092.81 398.231 1123.48L397.918 1123.72C374.614 1093.04 349.821 1059.67 326.392 1023.57C299.324 981.871 279.064 944.129 264.459 908.229Z" fill="url(#paint35_linear)"/>
<path d="M325.458 911.484C305.943 868.149 295.347 827.372 293.966 790.28C292.398 747.29 303.049 707.674 325.709 672.527C356.613 624.596 405.573 585.05 475.381 551.613C536.137 522.515 604.306 502.028 664.451 483.964C673.785 481.156 682.601 478.474 691.417 475.823C749.389 458.167 808.624 440.88 865.905 424.158C1031.03 375.961 1201.78 326.116 1361.97 261.69C1448.2 227.007 1524.6 190.982 1595.55 151.538C1675.18 107.27 1745.96 59.872 1811.94 6.60749C1861 -33.0183 1907.42 -75.7951 1950.91 -121.452C1993.64 -166.413 2033.6 -213.932 2070.56 -263.746C2107.35 -313.389 2141.38 -365.019 2172.49 -418.402C2202.9 -470.475 2231.71 -526.053 2258.23 -583.584L2258.58 -583.42C2232.09 -525.873 2203.25 -470.286 2172.83 -418.199C2141.7 -364.805 2107.66 -313.164 2070.86 -263.511C2033.89 -213.685 1993.92 -166.155 1951.18 -121.185C1907.67 -75.5025 1861.23 -32.7045 1812.15 6.9369C1746.14 60.1935 1675.35 107.607 1595.67 151.883C1524.7 191.327 1448.28 227.368 1362.04 262.059C1201.83 326.492 1031.04 376.337 865.937 424.535C808.679 441.257 749.42 458.544 691.456 476.199C682.64 478.882 673.824 481.533 664.49 484.333C604.361 502.373 536.2 522.875 475.459 551.966C405.714 585.372 356.809 624.91 325.945 672.755C303.332 707.838 292.672 747.377 294.264 790.28C295.645 827.324 306.226 868.055 325.725 911.335C341.742 946.889 363.633 984.333 392.654 1025.85C417.574 1061.47 443.222 1093.67 467.349 1123.6L467.043 1123.85C442.908 1093.91 417.26 1061.7 392.333 1026.08C363.366 984.522 341.483 947.03 325.458 911.484Z" fill="url(#paint36_linear)"/>
<path d="M351.217 797.755C347.852 755.063 357.116 715.666 378.756 680.661C444.862 573.763 594.408 528.577 714.572 492.27C725.796 488.874 736.4 485.674 746.871 482.443C797.125 466.944 848.344 451.595 897.876 436.763C1066.2 386.338 1240.26 334.195 1403.55 267.62C1491.4 231.791 1569.37 194.723 1641.83 154.299C1723.13 108.948 1795.57 60.5387 1863.21 6.31729C1912.99 -33.6279 1960.26 -76.6105 2004.74 -122.385C2048.52 -167.514 2089.7 -215.087 2128.1 -264.876C2166.32 -314.524 2202.02 -366.06 2235.07 -419.289C2267.21 -470.906 2298.29 -526.21 2327.4 -583.616L2327.76 -583.443C2298.6 -526.022 2267.52 -470.71 2235.37 -419.053C2202.31 -365.821 2166.6 -314.285 2128.37 -264.641C2089.98 -214.838 2048.8 -167.252 2005.03 -122.11C1960.53 -76.3328 1913.25 -33.3452 1863.45 6.60749C1795.78 60.8367 1723.34 109.254 1642.02 154.62C1569.55 195.053 1491.59 232.121 1403.7 267.957C1240.39 334.54 1066.33 386.683 897.986 437.108C848.454 451.947 797.243 467.289 746.989 482.795C736.51 486.027 725.913 489.227 714.689 492.615C594.588 528.907 445.121 574.069 379.093 680.857C357.492 715.783 348.244 755.102 351.641 797.723C354.535 834.352 366.865 874.589 388.286 917.304C427.661 995.808 490.668 1069.65 536.679 1123.59L536.381 1123.84C490.363 1069.91 427.355 996.059 387.941 917.515C366.457 874.714 354.111 834.438 351.217 797.755Z" fill="url(#paint37_linear)"/>
<path d="M408.859 803.018C404.286 761.448 412.31 722.944 432.696 688.645C495.915 582.312 646.042 536.868 766.747 500.357C780.795 496.106 794.066 492.09 806.953 488.058C857.936 472.105 909.916 456.363 960.193 441.131C1096.43 399.875 1237.3 357.207 1372.61 306.037C1589.3 224.097 1769.92 123.356 1924.8 -1.93403C1974.15 -41.9215 2021.16 -84.7097 2065.61 -130.087C2109.41 -174.89 2150.87 -221.924 2189.83 -271.002C2263.77 -363.961 2331.41 -466.231 2396.65 -583.655L2396.99 -583.459C2331.74 -466.02 2264.1 -363.734 2190.14 -270.758C2151.18 -221.669 2109.7 -174.624 2065.89 -129.813C2021.45 -84.424 1974.44 -41.6253 1925.09 -1.62813C1770.18 123.686 1589.52 224.45 1372.79 306.405C1237.47 357.576 1096.59 400.244 960.342 441.508C910.073 456.732 858.085 472.482 807.11 488.427C794.215 492.466 780.951 496.482 766.896 500.733C646.3 537.229 496.213 582.65 433.072 688.849C412.726 723.07 404.726 761.471 409.283 802.971C413.205 838.635 426.539 877.718 448.948 919.139C490.009 995.095 554.154 1066.23 600.988 1118.17L605.843 1123.57L605.553 1123.83L600.698 1118.44C553.848 1066.48 489.687 995.299 448.603 919.327C426.178 877.859 412.781 838.729 408.859 803.018Z" fill="url(#paint38_linear)"/>
<path d="M466.902 804.751C461.812 763.605 469.781 725.596 490.582 691.806C553.574 589.379 701.575 544.35 820.523 508.192C837.457 503.039 853.466 498.176 868.753 493.29C914.371 478.733 960.868 464.269 1005.83 450.253C1146.07 406.597 1291.09 361.45 1430.12 307.229C1642.49 224.387 1821.97 122.737 1978.83 -3.58895C2028.72 -43.8468 2076.39 -86.7873 2121.63 -132.221C2165.04 -175.791 2207.84 -223.204 2248.83 -273.096C2323.73 -364.291 2394.72 -465.878 2465.87 -583.694L2466.23 -583.482C2395.08 -465.659 2324.08 -364.056 2249.17 -272.884C2208.16 -222.961 2165.36 -175.555 2121.93 -131.977C2076.69 -86.5236 2029.01 -43.5646 1979.1 -3.2909C1822.23 123.035 1642.7 224.709 1430.31 307.535C1291.26 361.756 1146.24 406.903 1005.97 450.567C961.009 464.567 914.513 479.046 868.902 493.604C853.591 498.49 837.598 503.353 820.664 508.506C701.794 544.656 553.848 589.646 490.943 691.947C480.367 708.982 472.929 727.774 468.981 747.432C465.377 766.306 464.806 785.634 467.287 804.688C471.64 839.913 485.743 878.518 509.203 919.437C552.162 994.381 618.276 1063.9 666.553 1114.66C669.45 1117.69 672.274 1120.66 675.024 1123.57L674.734 1123.84C671.989 1120.93 669.157 1117.97 666.271 1114.93C617.978 1064.16 551.848 994.616 508.858 919.625C485.397 878.675 471.279 840.015 466.902 804.751Z" fill="url(#paint39_linear)"/>
<path d="M525.69 810.148C519.572 769.919 526.56 732.686 546.452 699.469C579.105 644.974 639.194 613.271 692.954 587.834C765.115 553.7 839.841 528.35 923.062 501.079C966.986 486.694 1011.69 472.356 1054.93 458.497C1201.98 411.366 1354.03 362.627 1499.38 303.653C1600.24 262.734 1696.05 216.16 1784.15 165.209C1875.14 112.691 1961.82 53.0379 2043.38 -13.1892C2137.87 -90.1172 2225.82 -177.43 2312.27 -280.108C2386 -367.734 2458.95 -467.047 2535.08 -583.726L2535.41 -583.506C2459.24 -466.82 2386.35 -367.522 2312.57 -279.857C2226.1 -177.163 2138.14 -89.8662 2043.63 -12.8833C1962.06 53.357 1875.36 113.021 1784.35 165.546C1696.23 216.528 1600.4 263.094 1499.53 304.013C1354.16 362.996 1202.11 411.735 1055.05 458.866C1011.8 472.733 967.072 487.102 923.187 501.447C839.975 528.719 765.233 554.061 693.119 588.187C639.414 613.6 579.387 645.272 546.789 699.673C526.945 732.804 519.972 769.958 526.074 810.093C531.306 844.51 546.334 882.166 570.743 922.026C615.452 994.969 682.718 1062.16 731.859 1111.21C736.141 1115.48 740.27 1119.6 744.244 1123.59L743.969 1123.86C740 1119.89 735.872 1115.76 731.584 1111.48C682.428 1062.42 615.107 995.228 570.406 922.23C545.973 882.323 530.929 844.619 525.69 810.148Z" fill="url(#paint40_linear)"/>
<path d="M584.611 811.998C581.473 792.711 581.528 773.989 584.752 756.365C588.326 737.173 595.569 718.85 606.087 702.403C636.512 654.244 694.853 625.224 746.33 599.607L752.228 596.674C826.123 559.81 906.143 533.048 983.528 507.141L988.626 505.431C1026.06 492.882 1064.19 480.333 1101.06 468.16C1253.18 417.962 1410.48 366.101 1560.56 303.299C1659.98 261.729 1754.97 214.363 1842.88 162.62C1933.11 109.576 2019.23 49.8209 2100.5 -16.1384C2194.41 -92.533 2283.48 -179.877 2372.85 -283.167C2446.62 -368.44 2520.16 -463.957 2604.28 -583.757L2604.6 -583.529C2520.44 -463.714 2446.88 -368.197 2373.11 -282.916C2283.78 -179.603 2194.68 -92.2193 2100.72 -15.8482C2019.44 50.1343 1933.31 109.913 1843.06 162.981C1755.13 214.748 1660.12 262.075 1560.69 303.684C1410.6 366.494 1253.29 418.378 1101.17 468.552C1064.3 480.717 1026.17 493.29 988.736 505.832L983.638 507.534C906.261 533.417 826.256 560.225 752.385 597.05L746.487 599.984C695.056 625.569 636.763 654.574 606.4 702.63C595.914 719.039 588.689 737.316 585.121 756.459C581.913 774.036 581.866 792.711 584.98 811.959C590.509 846.062 606.228 883.412 631.719 922.967C678.31 995.275 747.671 1061.14 798.317 1109.23C803.635 1114.28 808.655 1119.05 813.432 1123.62L813.165 1123.9C808.388 1119.33 803.369 1114.56 798.051 1109.51C747.389 1061.41 678.044 995.526 631.39 923.178C605.89 883.554 590.141 846.156 584.611 811.998Z" fill="url(#paint41_linear)"/>
<path d="M666.341 870.322C648.301 832.673 624.48 761.863 667.423 710.042C703.504 666.543 755.107 629.083 825.276 595.529C886.589 566.194 954.546 543.441 1014.5 523.369C1028.97 518.522 1042.65 513.957 1056.18 509.306C1087.5 498.561 1119.4 487.729 1150.25 477.266C1307.12 424.009 1469.38 368.941 1623.82 302.241C1723.52 259.165 1819.29 210.065 1908.48 156.267C1999.38 101.447 2086.21 40.1213 2168.26 -27.229C2259.16 -101.953 2347.47 -188.23 2438.17 -290.994C2485.39 -344.51 2554.82 -426.144 2673.53 -583.796L2673.85 -583.561C2611.48 -500.742 2528.36 -392.621 2438.46 -290.736C2347.76 -187.987 2259.45 -101.663 2168.51 -26.9309C2086.44 40.4323 1999.6 101.771 1908.68 156.604C1819.48 210.402 1723.7 259.518 1623.96 302.578C1469.49 369.286 1307.25 424.354 1150.35 477.611C1119.5 488.082 1087.6 498.906 1056.28 509.651C1042.75 514.287 1029.08 518.867 1014.6 523.714C954.656 543.786 886.707 566.532 825.417 595.874C755.311 629.42 703.716 666.856 667.706 710.309C624.896 761.957 648.677 832.666 666.67 870.173C714.414 969.784 803.784 1051.52 882.628 1123.62L882.369 1123.91C803.518 1051.77 714.116 970.019 666.341 870.322Z" fill="url(#paint42_linear)"/>
<path d="M737.694 718.246C818.938 618.039 960.029 569.614 1084.51 526.867C1098.85 521.942 1112.41 517.291 1125.89 512.553C1149.24 504.357 1173.01 496.082 1195.98 488.035C1359.5 430.935 1528.61 371.89 1689.25 300.327C1788.09 256.373 1883.88 205.846 1975.96 149.083C2067.46 92.5092 2154.91 29.6391 2237.69 -39.0725C2325.17 -111.718 2412.43 -196.819 2504.46 -299.222C2585.96 -389.907 2663.69 -485.597 2742.77 -583.835L2743.07 -583.584C2663.99 -485.346 2586.24 -389.649 2504.75 -298.963C2412.71 -196.536 2325.43 -111.436 2237.94 -38.7666C2155.15 29.953 2067.68 92.8334 1976.17 149.42C1884.06 206.189 1788.26 256.725 1689.4 300.687C1528.75 372.251 1359.64 431.311 1196.11 488.427C1173.13 496.451 1149.37 504.749 1126.02 512.945C1112.53 517.651 1098.98 522.358 1084.63 527.26C960.201 569.967 819.173 618.368 738 718.489C632.606 848.478 825.982 1015.07 929.87 1104.57C937.714 1111.35 945.165 1117.75 951.832 1123.62L951.573 1123.91C944.875 1118.05 937.455 1111.65 929.611 1104.87C825.629 1015.27 632.065 848.525 737.694 718.246Z" fill="url(#paint43_linear)"/>
<path d="M820.146 929.563C795.313 893.421 781.266 858.832 778.387 826.815C776.744 809.104 778.626 791.244 783.924 774.264C789.564 756.279 799.274 738.702 812.781 722.035C893.57 622.377 1032.08 573.709 1154.31 530.774C1169.38 525.48 1183.62 520.476 1197.81 515.369C1214.27 509.44 1230.75 503.521 1247.22 497.612C1416.38 436.857 1591.3 374.032 1756.98 297.715C1854.72 252.727 1949.44 201.435 2040.53 144.165C2131.05 87.0515 2217.74 24.0702 2300.03 -44.3744C2378.53 -109.616 2458.21 -185.869 2543.63 -277.488C2619.88 -359.263 2693.85 -445.768 2765.37 -529.418C2780.64 -547.269 2796.45 -565.725 2811.99 -583.874L2812.29 -583.616C2796.72 -565.466 2780.92 -547.01 2765.67 -529.167C2694.14 -445.509 2620.17 -358.965 2543.92 -277.221C2458.48 -185.555 2378.79 -109.325 2300.28 -44.0606C2217.97 24.3722 2131.26 87.3379 2040.72 144.432C1949.61 201.709 1854.88 253.006 1757.13 297.998C1591.43 374.322 1416.51 437.147 1247.34 497.91C1230.87 503.824 1214.4 509.743 1197.92 515.668C1183.74 520.774 1169.5 525.778 1154.43 531.072C1032.24 573.991 893.766 622.636 813.071 722.208C799.596 738.843 789.909 756.373 784.277 774.311C779.002 791.255 777.136 809.076 778.787 826.744C781.658 858.73 795.682 893.249 820.476 929.344C866.008 995.636 940.53 1057.08 994.941 1101.95C1004.23 1109.6 1012.98 1116.85 1021.08 1123.62L1020.82 1123.93C1012.75 1117.14 1003.98 1109.91 994.689 1102.24C940.255 1057.36 865.71 995.903 820.146 929.563Z" fill="url(#paint44_linear)"/>
<path d="M892.762 937.658C868.086 902.26 854.148 868.063 851.332 836.007C849.729 818.174 851.618 800.199 856.893 783.088C862.525 764.86 872.188 746.898 885.624 729.698C964.327 628.95 1101.03 579.473 1221.65 535.825C1235.89 530.672 1249.33 525.809 1262.77 520.836L1299.48 507.259C1477.91 441.32 1662.41 373.137 1836.39 289.629C1932.99 243.26 2026.54 190.794 2116.48 132.549C2205.88 74.5073 2291.57 10.9438 2373.06 -57.771C2439.73 -113.992 2508.33 -178.936 2582.7 -256.319C2649.08 -325.341 2714 -397.892 2776.79 -468.035C2810.85 -506.092 2846.08 -545.45 2881.24 -583.914L2881.52 -583.647C2846.37 -545.214 2811.14 -505.833 2777.08 -467.777C2714.29 -397.633 2649.37 -325.097 2582.99 -256.005C2508.59 -178.653 2440.01 -113.702 2373.31 -57.473C2291.82 11.2556 2206.11 74.8322 2116.7 132.886C2026.75 191.137 1933.18 243.611 1836.57 289.989C1662.56 373.506 1478.05 441.696 1299.62 507.636L1262.91 521.213C1249.47 526.185 1236.02 531.048 1221.78 536.201C1101.22 579.834 964.57 629.287 885.938 729.933C872.525 747.102 862.886 765.025 857.27 783.206C852.004 800.264 850.121 818.187 851.724 835.968C854.532 867.961 868.447 902.096 893.084 937.438C913.171 966.263 940.38 996.263 976.226 1029.02C1007.17 1057.3 1039.17 1082.82 1067.41 1105.34C1075.46 1111.77 1083.09 1117.84 1090.25 1123.64L1090 1123.94C1082.83 1118.14 1075.22 1112.07 1067.16 1105.65C1038.93 1083.12 1006.92 1057.6 975.967 1029.31C940.098 996.491 912.873 966.514 892.762 937.658Z" fill="url(#paint45_linear)"/>
<path d="M927.674 847.129C925.326 828.087 926.907 808.766 932.317 790.359C938.106 770.75 948.467 751.408 963.119 732.937C998.674 688.12 1048.17 649.483 1114.5 614.839C1172.86 584.336 1235.85 560.963 1296.77 538.358C1311.55 532.868 1325.53 527.683 1339.53 522.366L1350.91 518.044C1536.55 447.555 1728.51 374.659 1908.88 285.095C2004.23 237.715 2096.58 184.542 2185.43 125.874C2273.76 67.3896 2358.57 3.74769 2439.41 -64.7202C2564.62 -170.653 2676.19 -291.222 2784.09 -407.798C2837.94 -465.996 2893.63 -526.163 2950.47 -583.961L2950.76 -583.678C2893.91 -525.896 2838.22 -465.722 2784.37 -407.524C2676.44 -290.947 2564.89 -170.386 2439.63 -64.3987C2358.78 4.07351 2273.95 67.7156 2185.61 126.196C2096.75 184.868 2004.38 238.041 1909.02 285.417C1728.62 374.996 1536.67 447.893 1351.02 518.365L1339.63 522.687C1325.63 528.005 1311.66 533.189 1296.87 538.68C1235.97 561.277 1172.94 584.65 1114.65 615.137C1048.41 649.758 998.941 688.355 963.425 733.133C948.804 751.565 938.467 770.844 932.694 790.39C927.3 808.75 925.725 828.02 928.066 847.011C940.82 953.352 1066.55 1051.22 1149.75 1115.98L1159.49 1123.57L1159.25 1123.88L1149.51 1116.29C1066.26 1051.57 940.451 953.635 927.674 847.129Z" fill="url(#paint46_linear)"/>
<path d="M1091.55 1007.08C1067.76 982.161 1048.59 957.666 1034.57 934.347C1018.35 907.358 1008.42 880.903 1005.04 855.702C1002.38 836.479 1003.66 816.916 1008.79 798.202C1014.28 778.319 1024.38 758.773 1038.79 740.161C1074.14 694.402 1123.56 654.919 1189.89 619.443C1248.32 588.195 1311.64 564.124 1372.88 540.844C1388.75 534.805 1403.74 529.079 1418.75 523.26C1595.69 454.238 1796.25 375.961 1983.91 279.699C2079.63 230.514 2172.28 175.589 2261.37 115.223C2349.96 55.0859 2435.07 -10.0191 2516.29 -79.7797C2622.89 -171.234 2719.8 -273.888 2813.52 -373.123C2879.78 -443.337 2948.29 -515.912 3019.72 -584L3019.99 -583.718C2948.57 -515.629 2880.06 -443.062 2813.81 -372.887C2720.08 -273.606 2623.21 -170.951 2516.53 -79.4816C2435.31 -9.71173 2350.2 55.4012 2261.62 115.544C2172.51 175.907 2079.84 230.83 1984.11 280.012C1796.44 376.282 1595.85 454.536 1418.91 523.581C1403.91 529.44 1388.92 535.134 1373.05 541.166C1311.81 564.445 1248.5 588.509 1190.1 619.749C1123.82 655.193 1074.44 694.646 1039.12 740.357C1024.75 758.969 1014.67 778.468 1009.19 798.312C1004.07 816.972 1002.8 836.479 1005.45 855.647C1008.83 880.793 1018.78 907.201 1034.93 934.143C1048.94 957.462 1068.09 981.91 1091.86 1006.8C1134.76 1051.75 1185 1090.68 1228.73 1123.67L1228.49 1123.99C1184.72 1090.99 1134.47 1052.04 1091.55 1007.08Z" fill="url(#paint47_linear)"/>
<path fill-rule="evenodd" clip-rule="evenodd" d="M1837 180.05C1728.71 118.925 1608.14 82.7533 1484.08 74.1747C1474.91 74.1747 1471.38 75.2335 1471.56 85.1152V153.052C1471.56 162.58 1473.85 165.933 1484.08 166.639C1572.58 173.197 1659.12 195.924 1739.42 233.693C1744.79 235.409 1749.32 239.086 1752.1 243.992C1754.88 248.898 1755.71 254.672 1754.42 260.162C1749.82 329.952 1734.15 398.568 1708.01 463.442C1661.02 577.232 1583.61 675.889 1484.26 748.598C1483.38 749.249 1482.47 749.869 1481.57 750.487L1481.57 750.487C1476.82 753.722 1472.11 756.924 1472.26 764.48V866.826C1473.82 866.045 1475.19 865.373 1476.42 864.771C1479.64 863.195 1481.86 862.103 1483.91 860.826C1722.13 707.307 1850.06 492.028 1852 205.813C1852.56 200.482 1851.41 195.112 1848.71 190.479C1846.01 185.847 1841.91 182.194 1837 180.05ZM1101.17 256.28C1100.05 251.741 1100.78 246.942 1103.19 242.939C1105.61 238.936 1109.51 236.055 1114.05 234.928C1194.99 196.169 1282.51 173.002 1372.03 166.639C1381.56 166.639 1383.86 162.581 1383.5 153.934V100.997C1383.5 87.4176 1383.5 80.7133 1380.16 77.6092C1376.9 74.5819 1370.46 74.9789 1357.74 75.763C1352.09 75.763 1346.62 75.763 1341.15 76.9982C1222.38 89.2831 1107.68 127.213 1005 188.167V254.692C1011.58 380.077 1049.7 501.773 1115.83 608.502C1181.97 715.23 1273.97 803.537 1383.33 865.238V771.362C1383.64 766.956 1382.75 762.547 1380.76 758.603C1378.78 754.659 1375.76 751.324 1372.03 748.952C1209.52 624.725 1115.64 462.383 1101.17 256.28ZM1333.21 436.267C1372.07 510.265 1424.72 576.149 1488.32 630.371C1500.14 640.253 1499.97 645.547 1488.85 655.076C1475.66 666.065 1463.12 677.911 1450.55 689.779C1446.97 693.156 1443.39 696.534 1439.79 699.896C1434.5 704.837 1430.79 705.19 1424.79 699.896C1291.23 586.379 1201.64 429.673 1171.58 256.986C1169.28 244.634 1171.75 242.163 1184.63 244.634C1313.44 268.072 1434.58 322.586 1537.55 403.446C1545.67 409.799 1549.02 409.799 1553.43 399.917C1575.68 351.848 1591.75 301.153 1601.25 249.045C1603.02 238.81 1605.84 234.399 1617.49 238.81C1638.23 246.588 1659.27 253.325 1680.47 260.113C1682.35 260.717 1684.24 261.321 1686.13 261.926C1694.07 264.397 1695.66 268.455 1694.07 276.396C1672.88 378.739 1630.5 475.513 1569.67 560.494C1496.96 478.92 1406.37 415.266 1304.98 374.507C1312.37 395.957 1321.83 416.641 1333.21 436.267Z" fill="#1C212A"/>
</g>
<defs>
<linearGradient id="paint0_linear" x1="-1005.71" y1="-583.655" x2="-1005.71" y2="1124.1" gradientUnits="userSpaceOnUse">
<stop stop-color="#3B4759"/>
<stop offset="1" stop-color="#3B4759" stop-opacity="0"/>
</linearGradient>
<linearGradient id="paint1_linear" x1="-940.278" y1="-583.631" x2="-940.278" y2="1124.02" gradientUnits="userSpaceOnUse">
<stop stop-color="#3B4759"/>
<stop offset="1" stop-color="#3B4759" stop-opacity="0"/>
</linearGradient>
<linearGradient id="paint2_linear" x1="-874.292" y1="-583.616" x2="-874.292" y2="1124.02" gradientUnits="userSpaceOnUse">
<stop stop-color="#3B4759"/>
<stop offset="1" stop-color="#3B4759" stop-opacity="0"/>
</linearGradient>
<linearGradient id="paint3_linear" x1="-811.048" y1="-583.6" x2="-811.048" y2="1123.99" gradientUnits="userSpaceOnUse">
<stop stop-color="#3B4759"/>
<stop offset="1" stop-color="#3B4759" stop-opacity="0"/>
</linearGradient>
<linearGradient id="paint4_linear" x1="-747.45" y1="-583.608" x2="-747.45" y2="1123.91" gradientUnits="userSpaceOnUse">
<stop stop-color="#3B4759"/>
<stop offset="1" stop-color="#3B4759" stop-opacity="0"/>
</linearGradient>
<linearGradient id="paint5_linear" x1="-683.963" y1="-583.561" x2="-683.963" y2="1123.94" gradientUnits="userSpaceOnUse">
<stop stop-color="#3B4759"/>
<stop offset="1" stop-color="#3B4759" stop-opacity="0"/>
</linearGradient>
<linearGradient id="paint6_linear" x1="-620.86" y1="-583.6" x2="-620.86" y2="1123.86" gradientUnits="userSpaceOnUse">
<stop stop-color="#3B4759"/>
<stop offset="1" stop-color="#3B4759" stop-opacity="0"/>
</linearGradient>
<linearGradient id="paint7_linear" x1="-557.882" y1="-583.553" x2="-557.882" y2="1123.85" gradientUnits="userSpaceOnUse">
<stop stop-color="#3B4759"/>
<stop offset="1" stop-color="#3B4759" stop-opacity="0"/>
</linearGradient>
<linearGradient id="paint8_linear" x1="-495.102" y1="-583.537" x2="-495.102" y2="1123.8" gradientUnits="userSpaceOnUse">
<stop stop-color="#3B4759"/>
<stop offset="1" stop-color="#3B4759" stop-opacity="0"/>
</linearGradient>
<linearGradient id="paint9_linear" x1="-432.348" y1="-583.49" x2="-432.348" y2="1123.8" gradientUnits="userSpaceOnUse">
<stop stop-color="#3B4759"/>
<stop offset="1" stop-color="#3B4759" stop-opacity="0"/>
</linearGradient>
<linearGradient id="paint10_linear" x1="-369.557" y1="-583.49" x2="-369.557" y2="1123.7" gradientUnits="userSpaceOnUse">
<stop stop-color="#3B4759"/>
<stop offset="1" stop-color="#3B4759" stop-opacity="0"/>
</linearGradient>
<linearGradient id="paint11_linear" x1="-306.873" y1="-583.427" x2="-306.873" y2="1123.77" gradientUnits="userSpaceOnUse">
<stop stop-color="#3B4759"/>
<stop offset="1" stop-color="#3B4759" stop-opacity="0"/>
</linearGradient>
<linearGradient id="paint12_linear" x1="-243.999" y1="-583.443" x2="-243.999" y2="1123.68" gradientUnits="userSpaceOnUse">
<stop stop-color="#3B4759"/>
<stop offset="1" stop-color="#3B4759" stop-opacity="0"/>
</linearGradient>
<linearGradient id="paint13_linear" x1="-181.012" y1="-583.38" x2="-181.012" y2="1123.64" gradientUnits="userSpaceOnUse">
<stop stop-color="#3B4759"/>
<stop offset="1" stop-color="#3B4759" stop-opacity="0"/>
</linearGradient>
<linearGradient id="paint14_linear" x1="-117.741" y1="-583.388" x2="-117.741" y2="1123.69" gradientUnits="userSpaceOnUse">
<stop stop-color="#3B4759"/>
<stop offset="1" stop-color="#3B4759" stop-opacity="0"/>
</linearGradient>
<linearGradient id="paint15_linear" x1="-54.071" y1="-583.38" x2="-54.071" y2="1123.62" gradientUnits="userSpaceOnUse">
<stop stop-color="#3B4759"/>
<stop offset="1" stop-color="#3B4759" stop-opacity="0"/>
</linearGradient>
<linearGradient id="paint16_linear" x1="9.84381" y1="-583.372" x2="9.84381" y2="1123.57" gradientUnits="userSpaceOnUse">
<stop stop-color="#3B4759"/>
<stop offset="1" stop-color="#3B4759" stop-opacity="0"/>
</linearGradient>
<linearGradient id="paint17_linear" x1="74.1168" y1="-583.357" x2="74.1168" y2="1123.57" gradientUnits="userSpaceOnUse">
<stop stop-color="#3B4759"/>
<stop offset="1" stop-color="#3B4759" stop-opacity="0"/>
</linearGradient>
<linearGradient id="paint18_linear" x1="137.794" y1="-583.302" x2="137.794" y2="1123.61" gradientUnits="userSpaceOnUse">
<stop stop-color="#3B4759"/>
<stop offset="1" stop-color="#3B4759" stop-opacity="0"/>
</linearGradient>
<linearGradient id="paint19_linear" x1="200.287" y1="-583.349" x2="200.287" y2="1123.55" gradientUnits="userSpaceOnUse">
<stop stop-color="#3B4759"/>
<stop offset="1" stop-color="#3B4759" stop-opacity="0"/>
</linearGradient>
<linearGradient id="paint20_linear" x1="264.213" y1="-583.318" x2="264.213" y2="1123.55" gradientUnits="userSpaceOnUse">
<stop stop-color="#3B4759"/>
<stop offset="1" stop-color="#3B4759" stop-opacity="0"/>
</linearGradient>
<linearGradient id="paint21_linear" x1="327.481" y1="-583.294" x2="327.481" y2="1123.55" gradientUnits="userSpaceOnUse">
<stop stop-color="#3B4759"/>
<stop offset="1" stop-color="#3B4759" stop-opacity="0"/>
</linearGradient>
<linearGradient id="paint22_linear" x1="392.12" y1="-583.255" x2="392.12" y2="1123.58" gradientUnits="userSpaceOnUse">
<stop stop-color="#3B4759"/>
<stop offset="1" stop-color="#3B4759" stop-opacity="0"/>
</linearGradient>
<linearGradient id="paint23_linear" x1="455.264" y1="-583.278" x2="455.264" y2="1123.59" gradientUnits="userSpaceOnUse">
<stop stop-color="#3B4759"/>
<stop offset="1" stop-color="#3B4759" stop-opacity="0"/>
</linearGradient>
<linearGradient id="paint24_linear" x1="518.079" y1="-583.255" x2="518.079" y2="1123.62" gradientUnits="userSpaceOnUse">
<stop stop-color="#3B4759"/>
<stop offset="1" stop-color="#3B4759" stop-opacity="0"/>
</linearGradient>
<linearGradient id="paint25_linear" x1="580.638" y1="-583.271" x2="580.638" y2="1123.6" gradientUnits="userSpaceOnUse">
<stop stop-color="#3B4759"/>
<stop offset="1" stop-color="#3B4759" stop-opacity="0"/>
</linearGradient>
<linearGradient id="paint26_linear" x1="644.25" y1="-583.302" x2="644.25" y2="1123.62" gradientUnits="userSpaceOnUse">
<stop stop-color="#3B4759"/>
<stop offset="1" stop-color="#3B4759" stop-opacity="0"/>
</linearGradient>
<linearGradient id="paint27_linear" x1="708.439" y1="-583.357" x2="708.439" y2="1123.57" gradientUnits="userSpaceOnUse">
<stop stop-color="#3B4759"/>
<stop offset="1" stop-color="#3B4759" stop-opacity="0"/>
</linearGradient>
<linearGradient id="paint28_linear" x1="772.291" y1="-583.357" x2="772.291" y2="1123.61" gradientUnits="userSpaceOnUse">
<stop stop-color="#3B4759"/>
<stop offset="1" stop-color="#3B4759" stop-opacity="0"/>
</linearGradient>
<linearGradient id="paint29_linear" x1="835.806" y1="-583.38" x2="835.806" y2="1123.69" gradientUnits="userSpaceOnUse">
<stop stop-color="#3B4759"/>
<stop offset="1" stop-color="#3B4759" stop-opacity="0"/>
</linearGradient>
<linearGradient id="paint30_linear" x1="899.074" y1="-583.412" x2="899.074" y2="1123.69" gradientUnits="userSpaceOnUse">
<stop stop-color="#3B4759"/>
<stop offset="1" stop-color="#3B4759" stop-opacity="0"/>
</linearGradient>
<linearGradient id="paint31_linear" x1="963.405" y1="-584" x2="963.405" y2="1123.14" gradientUnits="userSpaceOnUse">
<stop stop-color="#3B4759"/>
<stop offset="1" stop-color="#3B4759" stop-opacity="0"/>
</linearGradient>
<linearGradient id="paint32_linear" x1="1025.09" y1="-583.467" x2="1025.09" y2="1123.73" gradientUnits="userSpaceOnUse">
<stop stop-color="#3B4759"/>
<stop offset="1" stop-color="#3B4759" stop-opacity="0"/>
</linearGradient>
<linearGradient id="paint33_linear" x1="1087.84" y1="-583.498" x2="1087.84" y2="1123.73" gradientUnits="userSpaceOnUse">
<stop stop-color="#3B4759"/>
<stop offset="1" stop-color="#3B4759" stop-opacity="0"/>
</linearGradient>
<linearGradient id="paint34_linear" x1="1150.57" y1="-583.522" x2="1150.57" y2="1123.73" gradientUnits="userSpaceOnUse">
<stop stop-color="#3B4759"/>
<stop offset="1" stop-color="#3B4759" stop-opacity="0"/>
</linearGradient>
<linearGradient id="paint35_linear" x1="1213.34" y1="-583.584" x2="1213.34" y2="1123.72" gradientUnits="userSpaceOnUse">
<stop stop-color="#3B4759"/>
<stop offset="1" stop-color="#3B4759" stop-opacity="0"/>
</linearGradient>
<linearGradient id="paint36_linear" x1="1276.2" y1="-583.584" x2="1276.2" y2="1123.85" gradientUnits="userSpaceOnUse">
<stop stop-color="#3B4759"/>
<stop offset="1" stop-color="#3B4759" stop-opacity="0"/>
</linearGradient>
<linearGradient id="paint37_linear" x1="1339.15" y1="-583.616" x2="1339.15" y2="1123.84" gradientUnits="userSpaceOnUse">
<stop stop-color="#3B4759"/>
<stop offset="1" stop-color="#3B4759" stop-opacity="0"/>
</linearGradient>
<linearGradient id="paint38_linear" x1="1402.3" y1="-583.655" x2="1402.3" y2="1123.83" gradientUnits="userSpaceOnUse">
<stop stop-color="#3B4759"/>
<stop offset="1" stop-color="#3B4759" stop-opacity="0"/>
</linearGradient>
<linearGradient id="paint39_linear" x1="1465.82" y1="-583.694" x2="1465.82" y2="1123.84" gradientUnits="userSpaceOnUse">
<stop stop-color="#3B4759"/>
<stop offset="1" stop-color="#3B4759" stop-opacity="0"/>
</linearGradient>
<linearGradient id="paint40_linear" x1="1529.48" y1="-583.726" x2="1529.48" y2="1123.86" gradientUnits="userSpaceOnUse">
<stop stop-color="#3B4759"/>
<stop offset="1" stop-color="#3B4759" stop-opacity="0"/>
</linearGradient>
<linearGradient id="paint41_linear" x1="1593.45" y1="-583.757" x2="1593.45" y2="1123.9" gradientUnits="userSpaceOnUse">
<stop stop-color="#3B4759"/>
<stop offset="1" stop-color="#3B4759" stop-opacity="0"/>
</linearGradient>
<linearGradient id="paint42_linear" x1="1658.56" y1="-583.796" x2="1658.56" y2="1123.91" gradientUnits="userSpaceOnUse">
<stop stop-color="#3B4759"/>
<stop offset="1" stop-color="#3B4759" stop-opacity="0"/>
</linearGradient>
<linearGradient id="paint43_linear" x1="1725.09" y1="-583.835" x2="1725.09" y2="1123.91" gradientUnits="userSpaceOnUse">
<stop stop-color="#3B4759"/>
<stop offset="1" stop-color="#3B4759" stop-opacity="0"/>
</linearGradient>
<linearGradient id="paint44_linear" x1="1795.05" y1="-583.874" x2="1795.05" y2="1123.93" gradientUnits="userSpaceOnUse">
<stop stop-color="#3B4759"/>
<stop offset="1" stop-color="#3B4759" stop-opacity="0"/>
</linearGradient>
<linearGradient id="paint45_linear" x1="1866.15" y1="-583.914" x2="1866.15" y2="1123.94" gradientUnits="userSpaceOnUse">
<stop stop-color="#3B4759"/>
<stop offset="1" stop-color="#3B4759" stop-opacity="0"/>
</linearGradient>
<linearGradient id="paint46_linear" x1="1938.69" y1="-583.961" x2="1938.69" y2="1123.88" gradientUnits="userSpaceOnUse">
<stop stop-color="#3B4759"/>
<stop offset="1" stop-color="#3B4759" stop-opacity="0"/>
</linearGradient>
<linearGradient id="paint47_linear" x1="2011.84" y1="-584" x2="2011.84" y2="1123.99" gradientUnits="userSpaceOnUse">
<stop stop-color="#3B4759"/>
<stop offset="1" stop-color="#3B4759" stop-opacity="0"/>
</linearGradient>
</defs>
</svg>
