<svg width="32" height="32" viewBox="0 0 32 32" fill="none" xmlns="http://www.w3.org/2000/svg">
<rect x="5" y="6" width="21" height="20" fill="white"/>
<path fill-rule="evenodd" clip-rule="evenodd" d="M0 16C0 7.16344 7.16344 0 16 0C24.8366 0 32 7.16344 32 16C32 24.8366 24.8366 32 16 32C7.16344 32 0 24.8366 0 16ZM24.5333 15.9882C24.5333 16.5653 24.4746 17.1416 24.3592 17.7033C24.2466 18.2517 24.08 18.7901 23.8616 19.3048C23.6483 19.8104 23.3837 20.2976 23.0745 20.752C22.7699 21.2034 22.4191 21.627 22.0336 22.0131C21.6473 22.3976 21.2223 22.7475 20.7711 23.0534C20.3152 23.3604 19.8273 23.6246 19.3214 23.8389C18.806 24.0561 18.2663 24.2225 17.7184 24.3349C17.1559 24.4506 16.5775 24.5096 15.9996 24.5096C15.4212 24.5096 14.8429 24.4506 14.2812 24.3349C13.7324 24.2225 13.1928 24.0561 12.6778 23.8389C12.1719 23.6246 11.6835 23.3604 11.2277 23.0534C10.7764 22.7475 10.3514 22.3976 9.96595 22.0131C9.58011 21.627 9.22924 21.2034 8.92422 20.752C8.61671 20.2976 8.35168 19.8104 8.13751 19.3048C7.91914 18.7901 7.75207 18.2517 7.63915 17.7033C7.52498 17.1416 7.46663 16.5653 7.46663 15.9882C7.46663 15.4106 7.52495 14.8331 7.63918 14.2726C7.75211 13.7242 7.91918 13.185 8.13755 12.6711C8.35171 12.1651 8.61674 11.6775 8.92426 11.2231C9.22927 10.7713 9.58014 10.3485 9.96598 9.96194C10.3514 9.57746 10.7764 9.22839 11.2277 8.92299C11.6836 8.61465 12.1719 8.35046 12.6778 8.13574C13.1928 7.91809 13.7324 7.75126 14.2812 7.63976C14.8429 7.52493 15.4213 7.46667 15.9996 7.46667C16.5775 7.46667 17.1559 7.52493 17.7184 7.63976C18.2664 7.75129 18.806 7.91812 19.3214 8.13574C19.8273 8.35043 20.3152 8.61465 20.7711 8.92299C21.2224 9.22839 21.6474 9.57746 22.0337 9.96194C22.4191 10.3485 22.77 10.7713 23.0745 11.2231C23.3837 11.6775 23.6483 12.1652 23.8616 12.6711C24.08 13.185 24.2466 13.7242 24.3592 14.2726C24.4746 14.8331 24.5333 15.4106 24.5333 15.9882ZM20.8124 10.5266C19.5294 9.39689 17.8447 8.71164 15.9996 8.71164C15.4075 8.71164 14.8329 8.78321 14.2825 8.91552L14.2943 8.93138C14.4669 9.16216 15.7948 10.9382 17.0068 13.1604C19.734 12.1395 20.7774 10.579 20.8118 10.5276L20.8124 10.5266ZM17.5676 14.2448C17.7368 14.5918 17.9006 14.945 18.0518 15.3C18.1056 15.4273 18.1581 15.5521 18.2093 15.6769C20.6648 15.3684 23.0846 15.8716 23.276 15.9114L23.2846 15.9132C23.2679 14.1882 22.65 12.6049 21.6274 11.3654L21.627 11.366C21.5987 11.4065 20.4265 13.0789 17.5676 14.2448ZM20.0719 22.0231C21.7082 20.9205 22.8704 19.1696 23.1946 17.1415C23.0446 17.0933 21.0057 16.4487 18.6535 16.8253C19.6094 19.4484 19.9977 21.5846 20.0719 22.0231ZM17.2703 17.168L17.288 17.1624C18.3134 19.8237 18.7368 22.0522 18.8447 22.688C17.9701 23.0595 17.0088 23.2647 15.9996 23.2647C14.3095 23.2647 12.7578 22.6851 11.5206 21.7244C11.5358 21.6914 12.9399 18.675 17.2397 17.1782C17.2497 17.1745 17.2599 17.1713 17.2702 17.1681L17.2703 17.168ZM8.718 15.756C8.84716 15.761 12.4478 15.8417 16.2 14.72C16.4088 15.1286 16.6084 15.543 16.7913 15.9566C16.6955 15.984 16.5988 16.0123 16.5038 16.0439C12.5711 17.3138 10.5768 20.8468 10.5793 20.8506C9.41844 19.5619 8.71216 17.8576 8.71216 15.9882C8.71216 15.9342 8.71394 15.8814 8.71573 15.8282C8.71654 15.8043 8.71735 15.7803 8.718 15.756ZM12.8903 9.40607C10.8581 10.3643 9.34136 12.2342 8.86841 14.4878L8.87541 14.4878C9.12447 14.4901 12.1342 14.518 15.5963 13.5994C14.335 11.3617 12.9874 9.53551 12.8903 9.40607Z" fill="#A5BF06"/>
</svg>
