<svg width="32" height="32" viewBox="0 0 32 32" fill="none" xmlns="http://www.w3.org/2000/svg">
<rect x="6" y="6" width="21" height="20" fill="#191D25"/>
<path fill-rule="evenodd" clip-rule="evenodd" d="M16 0C7.16344 0 0 7.16344 0 16C0 24.8366 7.16344 32 16 32C24.8366 32 32 24.8366 32 16C32 7.16344 24.8366 0 16 0ZM12.4822 7.51822C13.3924 7.4768 13.6832 7.46667 16.0008 7.46667H15.9981C18.3163 7.46667 18.6061 7.4768 19.5164 7.51822C20.4248 7.55982 21.0453 7.70365 21.5893 7.91467C22.1511 8.13245 22.6257 8.42401 23.1004 8.89868C23.5751 9.373 23.8666 9.84909 24.0853 10.4103C24.2951 10.9529 24.4391 11.573 24.4817 12.4815C24.5226 13.3917 24.5333 13.6826 24.5333 16.0001C24.5333 18.3176 24.5226 18.6078 24.4817 19.518C24.4391 20.4261 24.2951 21.0464 24.0853 21.5891C23.8666 22.1502 23.5751 22.6263 23.1004 23.1006C22.6263 23.5753 22.1509 23.8675 21.5898 24.0855C21.0469 24.2965 20.4261 24.4404 19.5176 24.482C18.6074 24.5234 18.3174 24.5335 15.9997 24.5335C13.6823 24.5335 13.3917 24.5234 12.4814 24.482C11.5732 24.4404 10.9529 24.2965 10.41 24.0855C9.84906 23.8675 9.37297 23.5753 8.89883 23.1006C8.42433 22.6263 8.13277 22.1502 7.91464 21.5889C7.70379 21.0464 7.55997 20.4263 7.51819 19.5178C7.47695 18.6076 7.46663 18.3176 7.46663 16.0001C7.46663 13.6826 7.4773 13.3915 7.51801 12.4813C7.5589 11.5732 7.7029 10.9529 7.91446 10.4102C8.13313 9.84909 8.42469 9.373 8.89936 8.89868C9.37368 8.42419 9.84977 8.13263 10.411 7.91467C10.9536 7.70365 11.5737 7.55982 12.4822 7.51822Z" fill="#4E5668"/>
<path fill-rule="evenodd" clip-rule="evenodd" d="M15.2353 9.00445C15.3839 9.00422 15.5438 9.00429 15.7164 9.00437L16.0008 9.00445C18.2792 9.00445 18.5493 9.01263 19.449 9.05352C20.281 9.09156 20.7326 9.23059 21.0334 9.34739C21.4316 9.50206 21.7155 9.68695 22.014 9.98562C22.3127 10.2843 22.4976 10.5687 22.6526 10.967C22.7694 11.2674 22.9086 11.719 22.9465 12.551C22.9874 13.4505 22.9963 13.7208 22.9963 15.9981C22.9963 18.2755 22.9874 18.5457 22.9465 19.4453C22.9084 20.2773 22.7694 20.7288 22.6526 21.0293C22.498 21.4275 22.3127 21.7111 22.014 22.0096C21.7154 22.3082 21.4318 22.4931 21.0334 22.6478C20.733 22.7651 20.281 22.9038 19.449 22.9418C18.5495 22.9827 18.2792 22.9916 16.0008 22.9916C13.7222 22.9916 13.4522 22.9827 12.5526 22.9418C11.7206 22.9034 11.269 22.7644 10.9681 22.6476C10.5698 22.4929 10.2854 22.3081 9.98671 22.0094C9.68804 21.7107 9.50315 21.427 9.34812 21.0286C9.23132 20.7281 9.09212 20.2766 9.05426 19.4446C9.01337 18.545 9.00519 18.2748 9.00519 15.996C9.00519 13.7172 9.01337 13.4484 9.05426 12.5488C9.0923 11.7168 9.23132 11.2653 9.34812 10.9645C9.50279 10.5662 9.68804 10.2818 9.98671 9.98313C10.2854 9.68446 10.5698 9.49957 10.9681 9.34455C11.2689 9.22721 11.7206 9.08854 12.5526 9.05032C13.3398 9.01476 13.6449 9.0041 15.2353 9.00232V9.00445ZM20.5559 10.4214C19.9906 10.4214 19.5319 10.8795 19.5319 11.445C19.5319 12.0103 19.9906 12.469 20.5559 12.469C21.1213 12.469 21.5799 12.0103 21.5799 11.445C21.5799 10.8797 21.1213 10.421 20.5559 10.421V10.4214ZM11.6185 16.0001C11.6185 13.58 13.5805 11.6179 16.0006 11.6178C18.4207 11.6178 20.3823 13.58 20.3823 16.0001C20.3823 18.4202 18.4209 20.3815 16.0008 20.3815C13.5806 20.3815 11.6185 18.4202 11.6185 16.0001Z" fill="#4E5668"/>
<path fill-rule="evenodd" clip-rule="evenodd" d="M16.0008 13.1556C17.5716 13.1556 18.8453 14.429 18.8453 16.0001C18.8453 17.5709 17.5716 18.8446 16.0008 18.8446C14.4297 18.8446 13.1563 17.5709 13.1563 16.0001C13.1563 14.429 14.4297 13.1556 16.0008 13.1556V13.1556Z" fill="#4E5668"/>
</svg>
