<svg width="32" height="32" viewBox="0 0 32 32" fill="none" xmlns="http://www.w3.org/2000/svg">
<rect x="5" y="6" width="21" height="20" fill="white"/>
<path fill-rule="evenodd" clip-rule="evenodd" d="M0 16C0 7.16344 7.16344 0 16 0C24.8366 0 32 7.16344 32 16C32 24.8366 24.8366 32 16 32C7.16344 32 0 24.8366 0 16ZM15.7802 13.3633C15.7802 12.7465 15.6187 12.2179 15.2965 11.7754C14.7597 11.0547 13.8496 10.6855 12.5631 10.6667H7.46661V21.071H12.219C12.7548 21.071 13.2505 21.0254 13.7091 20.9314C14.1677 20.8364 14.564 20.6631 14.9002 20.4087C15.1992 20.187 15.4481 19.9137 15.6468 19.59C15.9608 19.101 16.1174 18.5476 16.1174 17.9309C16.1174 17.333 15.9799 16.8241 15.707 16.4064C15.431 15.9876 15.0256 15.6817 14.4878 15.4877C14.842 15.3095 15.1099 15.1115 15.2925 14.8957C15.6187 14.5096 15.7802 13.9978 15.7802 13.3633ZM18.3722 12.4466H22.8917V11.1517H18.3722V12.4466ZM22.4934 13.5335C23.0382 13.7731 23.4868 14.1532 23.84 14.672C24.1621 15.1293 24.3688 15.6599 24.4631 16.2628C24.5183 16.6152 24.5404 17.1261 24.5314 17.7903H18.8488C18.8829 18.5615 19.1519 19.103 19.6656 19.4128C19.9767 19.6059 20.351 19.7029 20.7905 19.7029C21.2531 19.7029 21.6314 19.5851 21.9214 19.3505C22.0809 19.2228 22.2214 19.0466 22.3418 18.8208H24.424C24.3688 19.2762 24.1159 19.7405 23.6684 20.2117C22.97 20.9591 21.9916 21.3333 20.7343 21.3333C19.6957 21.3333 18.7796 21.0185 17.9879 20.3869C17.1921 19.7563 16.7968 18.7288 16.7968 17.3072C16.7968 15.9738 17.155 14.9511 17.8704 14.2394C18.5879 13.5296 19.5161 13.1722 20.659 13.1722C21.3384 13.1722 21.9495 13.293 22.4934 13.5335ZM9.56891 14.769V12.4733H11.8648C12.3695 12.4733 12.785 12.5278 13.1121 12.6357C13.4894 12.7921 13.678 13.1118 13.678 13.5979C13.678 14.0335 13.5346 14.3384 13.2496 14.5106C12.9626 14.6829 12.5903 14.769 12.1337 14.769H9.56891ZM18.899 16.4628C18.9732 15.9619 19.1549 15.5649 19.4429 15.2719C19.7308 14.9789 20.1383 14.8324 20.66 14.8324C21.1417 14.8324 21.5441 14.97 21.8712 15.2462C22.1943 15.5243 22.377 15.9282 22.4141 16.4628H18.899ZM9.56891 16.4905V19.2653H12.1297C12.5873 19.2653 12.9445 19.204 13.1984 19.0822C13.661 18.8545 13.8918 18.4229 13.8918 17.7834C13.8918 17.2409 13.669 16.8697 13.2205 16.6667C12.9696 16.5539 12.6174 16.4945 12.1658 16.4905H9.56891Z" fill="#A5BF06"/>
</svg>
