<svg width="149" height="32" viewBox="0 0 149 32" fill="none" xmlns="http://www.w3.org/2000/svg">
<g clip-path="url(#clip0)">
<path fill-rule="evenodd" clip-rule="evenodd" d="M3.63333 7.90668C3.59104 7.73518 3.61853 7.5539 3.70978 7.40266C3.80102 7.25142 3.94856 7.14256 4.12 7.10001C7.17807 5.63566 10.4846 4.7604 13.8667 4.52001C14.2267 4.52001 14.3133 4.36668 14.3 4.04001C14.3 3.37334 14.3 2.70668 14.3 2.04001C14.3 1.02668 14.3 1.02668 13.3267 1.08668C13.1133 1.08668 12.9067 1.08668 12.7 1.13334C8.21254 1.59747 3.87938 3.03049 0 5.33334C0 6.17335 0 7.00668 0 7.84668C0.248471 12.5838 1.68874 17.1815 4.18734 21.2138C6.68593 25.246 10.162 28.5823 14.2933 30.9133C14.2933 29.7267 14.2933 28.5467 14.2933 27.3667C14.305 27.2002 14.2716 27.0337 14.1965 26.8846C14.1214 26.7356 14.0074 26.6096 13.8667 26.52C7.72667 21.8267 4.18 15.6933 3.63333 7.90668Z" fill="#3BBFBD"/>
<path fill-rule="evenodd" clip-rule="evenodd" d="M31.4333 5.02667C27.3421 2.71736 22.7868 1.35077 18.1 1.02667C17.7533 1.02667 17.62 1.06667 17.6267 1.44001C17.6267 2.29334 17.6267 3.15334 17.6267 4.00667C17.6267 4.36667 17.7133 4.49334 18.1 4.52001C21.4434 4.76777 24.713 5.62641 27.7467 7.05334C27.9496 7.11816 28.1207 7.2571 28.2257 7.44245C28.3307 7.6278 28.362 7.84593 28.3133 8.05334C28.1394 10.6901 27.5476 13.2824 26.56 15.7333C24.7846 20.0324 21.86 23.7597 18.1067 26.5067C17.9 26.66 17.6467 26.7667 17.6533 27.1067C17.6533 28.36 17.6533 29.6133 17.6533 30.9733C17.8667 30.8667 17.9867 30.8133 18.0933 30.7467C27.0933 24.9467 31.9267 16.8133 32 6.00001C32.0212 5.79861 31.9777 5.59571 31.8758 5.42071C31.7739 5.24571 31.6189 5.1077 31.4333 5.02667V5.02667Z" fill="#3BBFBD"/>
<path fill-rule="evenodd" clip-rule="evenodd" d="M18.26 22.04C15.857 19.9915 13.868 17.5023 12.4 14.7067C11.9699 13.9652 11.6127 13.1838 11.3333 12.3733C15.1638 13.9132 18.5863 16.3181 21.3333 19.4C23.6318 16.1894 25.2328 12.5332 26.0333 8.66668C26.0933 8.36668 26.0333 8.21334 25.7333 8.12001C24.86 7.84001 23.9933 7.56668 23.14 7.24668C22.7 7.08001 22.5933 7.24668 22.5267 7.63334C22.1676 9.60201 21.5605 11.5173 20.72 13.3333C20.5533 13.7067 20.4267 13.7067 20.12 13.4667C16.2299 10.4117 11.653 8.35218 6.78666 7.46668C6.3 7.37334 6.20666 7.46668 6.29333 7.93334C7.4292 14.4575 10.814 20.378 15.86 24.6667C16.0867 24.8667 16.2267 24.8533 16.4267 24.6667C17.04 24.0933 17.64 23.5067 18.28 22.9733C18.7 22.6133 18.7067 22.4133 18.26 22.04Z" fill="#3BBFBD"/>
</g>
<path d="M51.46 23L45.76 13.74H45.7L45.78 23H42.46V8.84H46.36L52.04 18.08H52.1L52.02 8.84H55.34V23H51.46ZM69.0008 13.2C69.0008 14.0267 68.8474 14.7267 68.5408 15.3C68.2341 15.86 67.8208 16.3133 67.3008 16.66C66.7808 17.0067 66.1808 17.26 65.5008 17.42C64.8208 17.58 64.1141 17.66 63.3808 17.66H61.6808V23H58.2608V8.84H63.4608C64.2341 8.84 64.9541 8.92 65.6208 9.08C66.3008 9.22667 66.8874 9.47333 67.3808 9.82C67.8874 10.1533 68.2808 10.6 68.5608 11.16C68.8541 11.7067 69.0008 12.3867 69.0008 13.2ZM65.5808 13.22C65.5808 12.8867 65.5141 12.6133 65.3808 12.4C65.2474 12.1867 65.0674 12.02 64.8408 11.9C64.6141 11.78 64.3541 11.7 64.0608 11.66C63.7808 11.62 63.4874 11.6 63.1808 11.6H61.6808V14.94H63.1208C63.4408 14.94 63.7474 14.9133 64.0408 14.86C64.3341 14.8067 64.5941 14.7133 64.8208 14.58C65.0608 14.4467 65.2474 14.2733 65.3808 14.06C65.5141 13.8333 65.5808 13.5533 65.5808 13.22ZM86.0538 23H82.6738L79.8737 13.42H79.8138L77.0138 23H73.6138L69.5938 8.84H73.2738L75.5138 18.26H75.5738L78.0938 8.84H81.6538L84.1938 18.26H84.2538L86.5338 8.84H90.0938L86.0538 23ZM104.782 15.88C104.782 17.12 104.548 18.1933 104.082 19.1C103.628 19.9933 103.022 20.7333 102.262 21.32C101.515 21.8933 100.668 22.32 99.7216 22.6C98.7749 22.8667 97.8149 23 96.8416 23H91.5616V8.84H96.6816C97.6816 8.84 98.6682 8.96 99.6416 9.2C100.615 9.42667 101.482 9.81333 102.242 10.36C103.002 10.8933 103.615 11.6133 104.082 12.52C104.548 13.4267 104.782 14.5467 104.782 15.88ZM101.222 15.88C101.222 15.08 101.088 14.42 100.822 13.9C100.568 13.3667 100.222 12.9467 99.7816 12.64C99.3549 12.32 98.8616 12.0933 98.3016 11.96C97.7549 11.8267 97.1882 11.76 96.6016 11.76H94.9016V20.04H96.5216C97.1349 20.04 97.7216 19.9733 98.2816 19.84C98.8549 19.6933 99.3549 19.46 99.7816 19.14C100.222 18.82 100.568 18.3933 100.822 17.86C101.088 17.3267 101.222 16.6667 101.222 15.88ZM114.53 12.52C114.237 12.1467 113.85 11.8533 113.37 11.64C112.903 11.4133 112.45 11.3 112.01 11.3C111.783 11.3 111.55 11.32 111.31 11.36C111.083 11.4 110.877 11.48 110.69 11.6C110.503 11.7067 110.343 11.8533 110.21 12.04C110.09 12.2133 110.03 12.44 110.03 12.72C110.03 12.96 110.077 13.16 110.17 13.32C110.277 13.48 110.423 13.62 110.61 13.74C110.81 13.86 111.043 13.9733 111.31 14.08C111.577 14.1733 111.877 14.2733 112.21 14.38C112.69 14.54 113.19 14.72 113.71 14.92C114.23 15.1067 114.703 15.36 115.13 15.68C115.557 16 115.91 16.4 116.19 16.88C116.47 17.3467 116.61 17.9333 116.61 18.64C116.61 19.4533 116.457 20.16 116.15 20.76C115.857 21.3467 115.457 21.8333 114.95 22.22C114.443 22.6067 113.863 22.8933 113.21 23.08C112.557 23.2667 111.883 23.36 111.19 23.36C110.177 23.36 109.197 23.1867 108.25 22.84C107.303 22.48 106.517 21.9733 105.89 21.32L108.13 19.04C108.477 19.4667 108.93 19.8267 109.49 20.12C110.063 20.4 110.63 20.54 111.19 20.54C111.443 20.54 111.69 20.5133 111.93 20.46C112.17 20.4067 112.377 20.32 112.55 20.2C112.737 20.08 112.883 19.92 112.99 19.72C113.097 19.52 113.15 19.28 113.15 19C113.15 18.7333 113.083 18.5067 112.95 18.32C112.817 18.1333 112.623 17.9667 112.37 17.82C112.13 17.66 111.823 17.52 111.45 17.4C111.09 17.2667 110.677 17.1267 110.21 16.98C109.757 16.8333 109.31 16.66 108.87 16.46C108.443 16.26 108.057 16.0067 107.71 15.7C107.377 15.38 107.103 15 106.89 14.56C106.69 14.1067 106.59 13.56 106.59 12.92C106.59 12.1333 106.75 11.46 107.07 10.9C107.39 10.34 107.81 9.88 108.33 9.52C108.85 9.16 109.437 8.9 110.09 8.74C110.743 8.56667 111.403 8.48 112.07 8.48C112.87 8.48 113.683 8.62667 114.51 8.92C115.35 9.21333 116.083 9.64667 116.71 10.22L114.53 12.52ZM131.446 22.14C130.753 22.5 129.94 22.7933 129.006 23.02C128.086 23.2467 127.08 23.36 125.986 23.36C124.853 23.36 123.806 23.18 122.846 22.82C121.9 22.46 121.08 21.9533 120.386 21.3C119.706 20.6467 119.173 19.8667 118.786 18.96C118.4 18.04 118.206 17.02 118.206 15.9C118.206 14.7667 118.4 13.74 118.786 12.82C119.186 11.9 119.733 11.12 120.426 10.48C121.12 9.82667 121.933 9.32667 122.866 8.98C123.8 8.63333 124.806 8.46 125.886 8.46C127.006 8.46 128.046 8.63333 129.006 8.98C129.966 9.31333 130.746 9.76667 131.346 10.34L129.186 12.8C128.853 12.4133 128.413 12.1 127.866 11.86C127.32 11.6067 126.7 11.48 126.006 11.48C125.406 11.48 124.853 11.5933 124.346 11.82C123.84 12.0333 123.4 12.34 123.026 12.74C122.653 13.1267 122.36 13.5933 122.146 14.14C121.946 14.6733 121.846 15.26 121.846 15.9C121.846 16.5533 121.94 17.1533 122.126 17.7C122.313 18.2467 122.586 18.72 122.946 19.12C123.32 19.5067 123.773 19.8133 124.306 20.04C124.853 20.2533 125.473 20.36 126.166 20.36C126.566 20.36 126.946 20.3333 127.306 20.28C127.666 20.2133 128 20.1133 128.306 19.98V17.4H125.606V14.64H131.446V22.14ZM143.237 23L137.537 13.74H137.477L137.557 23H134.237V8.84H138.137L143.817 18.08H143.877L143.797 8.84H147.117V23H143.237Z" fill="white"/>
<defs>
<clipPath id="clip0">
<rect width="32" height="32" fill="white"/>
</clipPath>
</defs>
</svg>
